<svg width="184" height="20" viewBox="0 0 184 20" fill="none" xmlns="http://www.w3.org/2000/svg">
<path d="M7.89 0.339966H9.71L2.82 18.61H1L7.89 0.339966Z" fill="black"/>
<path d="M11.82 12.32L14.05 8.90001L10.7 7.44001L11.08 6.33001L14.56 7.42001L14.75 3.51001H15.95L16.14 7.42001L19.62 6.33001L20 7.44001L16.65 8.90001L18.88 12.32L17.86 13.03L15.36 9.78001L12.86 13.03L11.84 12.32H11.82Z" fill="black"/>
<path d="M34.8 17.09C34.8 16.26 35.38 15.48 36.46 14.87V14.79C35.91 14.48 35.41 13.95 35.41 13.09C35.41 12.43 35.87 11.69 36.63 11.17V11.09C35.92 10.57 35.34 9.65001 35.34 8.44001C35.34 6.14001 37.25 4.76001 39.47 4.76001C40.07 4.76001 40.58 4.84001 41.03 5.01001H45.25V6.64001H42.75C43.15 7.08001 43.51 7.77001 43.51 8.52001C43.51 10.76 41.73 12.02 39.47 12.02C38.97 12.02 38.38 11.91 37.82 11.69C37.36 11.98 37.11 12.31 37.11 12.76C37.11 13.5 37.83 13.83 39.14 13.83H41.33C43.98 13.83 45.3 14.53 45.3 16.29C45.3 18.27 43.04 19.91 39.49 19.91C36.58 19.91 34.78 18.94 34.78 17.12L34.8 17.09ZM43.3 16.6C43.3 15.71 42.56 15.48 41.1 15.48H39.28C38.65 15.48 38.14 15.44 37.72 15.32C36.87 15.79 36.56 16.31 36.56 16.84C36.56 17.84 37.68 18.44 39.72 18.44C41.91 18.44 43.3 17.57 43.3 16.6ZM41.63 8.42001C41.63 7.08001 40.67 6.21001 39.48 6.21001C38.29 6.21001 37.33 7.08001 37.33 8.42001C37.33 9.76001 38.31 10.66 39.48 10.66C40.65 10.66 41.63 9.81001 41.63 8.42001Z" fill="black"/>
<path d="M47.77 4.98999H49.5L49.69 7.36999H49.74C50.8 5.69999 52.38 4.73999 54.21 4.73999C55.01 4.73999 55.6 4.85999 56.22 5.15999L55.76 6.93999C55.06 6.71999 54.67 6.60999 53.88 6.60999C52.41 6.60999 50.99 7.35999 49.86 9.42999V15.25H47.77V4.98999Z" fill="black"/>
<path d="M58.03 12.54C58.03 10.24 60.12 9.10999 65.3 8.71999C65.23 7.44999 64.55 6.42999 62.72 6.42999C61.48 6.42999 60.26 6.99999 59.25 7.58999L58.45 6.18999C59.6 5.47999 61.31 4.73999 63.09 4.73999C65.92 4.73999 67.39 6.35999 67.39 9.06999V15.25H65.66L65.49 13.92H65.42C64.32 14.78 62.9 15.5 61.49 15.5C59.53 15.5 58.02 14.35 58.02 12.54H58.03ZM65.3 12.46V10.06C61.27 10.35 60.08 11.16 60.08 12.39C60.08 13.42 61 13.85 62.1 13.85C63.2 13.85 64.24 13.34 65.3 12.47V12.46Z" fill="black"/>
<path d="M69.8 10.13C69.8 6.78999 72 4.72999 74.38 4.72999C75.58 4.72999 76.48 5.18999 77.33 5.97999H77.38L77.28 4.17999V0.359985H79.37V15.25H77.66L77.49 13.98H77.42C76.6 14.81 75.42 15.51 74.2 15.51C71.55 15.51 69.79 13.55 69.79 10.15L69.8 10.13ZM77.28 12.38V7.52999C76.45 6.75999 75.66 6.47999 74.85 6.47999C73.25 6.47999 71.94 7.86999 71.94 10.11C71.94 12.35 72.98 13.76 74.69 13.76C75.62 13.76 76.47 13.32 77.28 12.39V12.38Z" fill="black"/>
<path d="M82.31 11.35V4.98999H84.4V11.08C84.4 12.85 84.99 13.7 86.54 13.7C87.61 13.7 88.39 13.22 89.41 12.01V4.98999H91.5V15.25H89.77L89.6 13.54H89.52C88.52 14.7 87.35 15.5 85.79 15.5C83.39 15.5 82.3 14.03 82.3 11.35H82.31Z" fill="black"/>
<path d="M94.18 12.54C94.18 10.24 96.27 9.10999 101.45 8.71999C101.38 7.44999 100.7 6.42999 98.87 6.42999C97.63 6.42999 96.41 6.99999 95.4 7.58999L94.6 6.18999C95.75 5.47999 97.46 4.73999 99.24 4.73999C102.07 4.73999 103.54 6.35999 103.54 9.06999V15.25H101.81L101.64 13.92H101.57C100.47 14.78 99.05 15.5 97.64 15.5C95.68 15.5 94.17 14.35 94.17 12.54H94.18ZM101.45 12.46V10.06C97.42 10.35 96.23 11.16 96.23 12.39C96.23 13.42 97.15 13.85 98.25 13.85C99.35 13.85 100.39 13.34 101.45 12.47V12.46Z" fill="black"/>
<path d="M108.36 11.19V6.65999H105.53V5.09999L108.44 4.98999L108.71 1.73999H110.45V4.98999H115.29V6.65999H110.45V11.2C110.45 12.96 111.07 13.82 112.93 13.82C113.83 13.82 114.56 13.64 115.27 13.38L115.69 14.91C114.77 15.23 113.75 15.51 112.44 15.51C109.37 15.51 108.35 13.77 108.35 11.2L108.36 11.19Z" fill="black"/>
<path d="M122.24 6.66H117.65V4.99H124.33V15.25H122.24V6.66ZM121.56 1.49C121.56 0.61 122.22 0 123.12 0C124.02 0 124.68 0.61 124.68 1.49C124.68 2.37 124.02 2.97 123.12 2.97C122.22 2.97 121.56 2.39 121.56 1.49Z" fill="black"/>
<path d="M127.87 10.13C127.87 6.69998 130.28 4.72998 132.98 4.72998C135.68 4.72998 138.09 6.68998 138.09 10.13C138.09 13.57 135.68 15.49 132.98 15.49C130.28 15.49 127.87 13.53 127.87 10.13ZM135.95 10.13C135.95 7.91998 134.8 6.44998 132.98 6.44998C131.16 6.44998 130.01 7.91998 130.01 10.13C130.01 12.34 131.16 13.78 132.98 13.78C134.8 13.78 135.95 12.33 135.95 10.13Z" fill="black"/>
<path d="M140.59 4.98998H142.3L142.47 6.61998H142.55C143.58 5.56998 144.75 4.72998 146.33 4.72998C148.73 4.72998 149.82 6.19998 149.82 8.87998V15.24H147.73V9.14998C147.73 7.35998 147.13 6.52998 145.61 6.52998C144.49 6.52998 143.74 7.07998 142.68 8.15998V15.23H140.59V4.98998Z" fill="black"/>
<path d="M165.9 12.32L168.13 8.90001L164.77 7.44001L165.15 6.33001L168.63 7.42001L168.82 3.51001H170.02L170.21 7.42001L173.69 6.33001L174.07 7.44001L170.71 8.90001L172.94 12.32L171.92 13.03L169.42 9.78001L166.92 13.03L165.9 12.32Z" fill="black"/>
<path d="M181.49 0.339966H183.31L176.42 18.61H174.6L181.49 0.339966Z" fill="black"/>
</svg>
