<svg width="122" height="20" viewBox="0 0 122 20" fill="none" xmlns="http://www.w3.org/2000/svg">
<path d="M0 10.28C0 6.85 2.66 4.88 5.78 4.88C7.43 4.88 8.7 5.53001 9.54 6.35001L8.53 7.67001C7.7 6.99001 6.86 6.60001 5.86 6.60001C3.65 6.60001 2.14 8.07 2.14 10.28C2.14 12.49 3.64 13.93 5.81 13.93C7.03 13.93 8.04 13.39 8.85 12.72L9.75 14.06C8.58 15.08 7.13 15.64 5.64 15.64C2.43 15.64 0 13.68 0 10.28Z" fill="black"/>
<path d="M11.2 10.28C11.2 6.85 13.61 4.88 16.31 4.88C19.01 4.88 21.42 6.84 21.42 10.28C21.42 13.72 19.01 15.64 16.31 15.64C13.61 15.64 11.2 13.68 11.2 10.28ZM19.28 10.28C19.28 8.07 18.13 6.60001 16.31 6.60001C14.49 6.60001 13.34 8.07 13.34 10.28C13.34 12.49 14.49 13.93 16.31 13.93C18.13 13.93 19.28 12.48 19.28 10.28Z" fill="black"/>
<path d="M23.56 5.13H25.19L25.36 6.46002H25.41C25.9 5.54002 26.54 4.88 27.72 4.88C28.7 4.88 29.34 5.47 29.62 6.63C30.15 5.58 30.81 4.88 31.99 4.88C33.43 4.88 34.27 6.04002 34.27 8.08002V15.39H32.23V8.23001C32.23 7.19001 31.94 6.66 31.28 6.66C30.62 6.66 30.3 7.13 29.82 8.09V15.39H28.01V8.23001C28.01 7.19001 27.74 6.66 27.08 6.66C26.45 6.66 26.04 7.13 25.6 8.09V15.39H23.56V5.13Z" fill="black"/>
<path d="M36.85 5.13H38.56L38.73 6.37H38.8C39.72 5.5 41.01 4.88 42.22 4.88C44.93 4.88 46.43 6.93002 46.43 10.11C46.43 13.6 44.25 15.64 41.82 15.64C40.88 15.64 39.78 15.18 38.9 14.37H38.85L38.95 16.24V19.58H36.86V5.13H36.85ZM44.28 10.12C44.28 7.97 43.5 6.63 41.65 6.63C40.81 6.63 39.87 7.05 38.94 8V12.85C39.79 13.62 40.76 13.9 41.41 13.9C43.04 13.9 44.28 12.55 44.28 10.12Z" fill="black"/>
<path d="M50.36 11.8V2.17001H46.84V0.5H52.46V11.92C52.46 13.34 53.27 13.92 54.39 13.92C54.95 13.92 55.55 13.78 56.23 13.49L56.73 15.04C55.75 15.43 55.06 15.64 53.9 15.64C51.6 15.64 50.36 14.27 50.36 11.8Z" fill="black"/>
<path d="M58.13 10.24C58.13 6.90002 60.65 4.88 63.39 4.88C66.4 4.88 68.11 6.86 68.11 9.72C68.11 10.16 68.06 10.59 68.01 10.86H59.57V9.33002H66.71L66.26 9.84C66.26 7.62 65.18 6.5 63.45 6.5C61.72 6.5 60.18 7.83 60.18 10.25C60.18 12.67 61.76 14.01 63.97 14.01C65.12 14.01 66.04 13.66 66.97 13.11L67.7 14.43C66.65 15.13 65.28 15.65 63.71 15.65C60.6 15.65 58.14 13.67 58.14 10.25L58.13 10.24Z" fill="black"/>
<path d="M72.61 11.33V6.80002H69.78V5.24002L72.69 5.13L72.96 1.88H74.69V5.13H79.53V6.80002H74.69V11.34C74.69 13.1 75.31 13.96 77.17 13.96C78.07 13.96 78.8 13.78 79.51 13.52L79.93 15.05C79.01 15.37 77.99 15.65 76.68 15.65C73.61 15.65 72.59 13.91 72.59 11.34L72.61 11.33Z" fill="black"/>
<path d="M81.27 10.24C81.27 6.90002 83.79 4.88 86.53 4.88C89.54 4.88 91.25 6.86 91.25 9.72C91.25 10.16 91.2 10.59 91.15 10.86H82.71V9.33002H89.85L89.4 9.84C89.4 7.62 88.32 6.5 86.59 6.5C84.86 6.5 83.32 7.83 83.32 10.25C83.32 12.67 84.9 14.01 87.11 14.01C88.26 14.01 89.18 13.66 90.11 13.11L90.84 14.43C89.79 15.13 88.42 15.65 86.85 15.65C83.74 15.65 81.28 13.67 81.28 10.25L81.27 10.24Z" fill="black"/>
<path d="M93.23 10.28C93.23 6.94 95.43 4.88 97.81 4.88C99.01 4.88 99.91 5.34 100.76 6.13H100.81L100.71 4.33002V0.5H102.8V15.39H101.09L100.92 14.12H100.85C100.03 14.95 98.85 15.65 97.63 15.65C94.98 15.65 93.22 13.69 93.22 10.29L93.23 10.28ZM100.71 12.53V7.67999C99.88 6.90999 99.09 6.63 98.28 6.63C96.68 6.63 95.37 8.02001 95.37 10.26C95.37 12.5 96.41 13.9 98.12 13.9C99.05 13.9 99.9 13.46 100.71 12.53Z" fill="black"/>
<path d="M106.81 9.55002C106.81 5.53002 108.58 2.31 111.45 0L112.61 1.01001C109.88 3.40001 108.64 6.08002 108.64 9.55002C108.64 13.02 109.88 15.7 112.61 18.09L111.45 19.1C108.58 16.79 106.81 13.58 106.81 9.55002Z" fill="black"/>
<path d="M115.64 18.1C118.37 15.71 119.61 13.03 119.61 9.56C119.61 6.09 118.37 3.41002 115.64 1.02002L116.8 0.0100098C119.67 2.32001 121.44 5.53 121.44 9.56C121.44 13.59 119.67 16.8 116.8 19.11L115.64 18.1Z" fill="black"/>
</svg>
