<svg width="132" height="20" viewBox="0 0 132 20" fill="none" xmlns="http://www.w3.org/2000/svg">
<path d="M2 3.25H10.67V5.03H4.11V8.93H9.65V10.71H4.11V15.23H10.88V17.01H2V3.26V3.25Z" fill="black"/>
<path d="M12.87 3.25H15.12L19.13 11.42L20.41 14.32H20.46C20.38 12.94 20.18 11.29 20.18 9.8V3.26H22.19V17.01H19.94L15.93 8.83L14.65 5.94H14.6C14.68 7.37 14.88 8.94 14.88 10.41V17H12.87V3.25Z" fill="black"/>
<path d="M24.9 3.25H28.4C32.49 3.25 34.83 5.61 34.83 10.06C34.83 14.51 32.49 17 28.5 17H24.89V3.25H24.9ZM28.26 15.28C31.13 15.28 32.66 13.49 32.66 10.06C32.66 6.63 31.13 4.97 28.26 4.97H27.01V15.28H28.26Z" fill="black"/>
<path d="M52.97 16.18L56.89 12.56H48.13V10.87H56.89L52.97 7.24998L54 6.09998L59.76 11.68V11.76L54 17.34L52.97 16.19V16.18Z" fill="black"/>
<path d="M73.2 15.23L74.44 13.78C75.49 14.76 76.87 15.41 78.37 15.41C80.11 15.41 81.08 14.61 81.08 13.5C81.08 12.16 80.08 11.78 78.71 11.21L76.77 10.36C75.37 9.81 73.82 8.79 73.82 6.76C73.82 4.62 75.75 3 78.46 3C80.16 3 81.71 3.67 82.78 4.72L81.69 6.06C80.77 5.29 79.77 4.83 78.37 4.83C76.97 4.83 75.95 5.5 75.95 6.62C75.95 7.81 77.14 8.25 78.35 8.72L80.22 9.54C81.94 10.21 83.23 11.22 83.23 13.23C83.23 15.44 81.37 17.24 78.25 17.24C76.28 17.24 74.49 16.47 73.2 15.22V15.23Z" fill="black"/>
<path d="M88.93 5.03H84.49V3.25H95.47V5.03H91.03V17H88.92V5.03H88.93Z" fill="black"/>
<path d="M99.2 3.25H101.66L106.2 17H103.95L101.74 9.51C101.29 8.02 100.84 6.48 100.45 4.93H100.37C99.96 6.49 99.53 8.02 99.08 9.51L96.83 17H94.67L99.21 3.25H99.2ZM97.2 11.38H103.58V13.06H97.2V11.38Z" fill="black"/>
<path d="M107.88 3.25H112.33C115.15 3.25 117.28 4.26 117.28 7.23C117.28 10.2 115.15 11.41 112.33 11.41H110.01V17H107.88V3.25ZM112.08 9.72C114.09 9.72 115.19 8.89 115.19 7.23C115.19 5.57 114.09 4.94 112.08 4.94H110.01V9.72H112.08ZM113.5 9.65L117.74 17H115.37L111.92 10.85L113.5 9.65Z" fill="black"/>
<path d="M123.03 5.03H118.59V3.25H129.58V5.03H125.14V17H123.03V5.03Z" fill="black"/>
</svg>
