<svg width="60" height="20" viewBox="0 0 60 20" fill="none" xmlns="http://www.w3.org/2000/svg">
<path d="M5.176 16.5657C4.92743 16.3686 4.77314 16.12 4.71314 15.8114C4.65314 15.5029 4.68742 15.1686 4.816 14.8L6.11885 10.96L2.81028 8.59429C2.48457 8.36286 2.25314 8.10571 2.116 7.82285C1.97886 7.53999 1.96171 7.24857 2.07314 6.93143C2.176 6.62286 2.36457 6.4 2.63886 6.26286C2.91314 6.11714 3.24743 6.04857 3.63314 6.04857H7.68743L8.92171 2.20857C9.04171 1.83143 9.21314 1.53142 9.436 1.31714C9.65886 1.10285 9.93314 1 10.2503 1C10.5674 1 10.8417 1.10285 11.0646 1.31714C11.2874 1.53142 11.4589 1.83143 11.5789 2.20857L12.8131 6.04857H16.8589C17.2531 6.04857 17.596 6.11714 17.8617 6.26286C18.136 6.40857 18.3246 6.63142 18.4274 6.93999C18.5303 7.24857 18.5217 7.53999 18.3846 7.82285C18.2474 8.10571 18.016 8.36286 17.6903 8.59429L14.3817 10.96L15.6846 14.8C15.8131 15.1686 15.8474 15.5114 15.796 15.8114C15.736 16.12 15.5817 16.3686 15.3246 16.5657C15.0674 16.7629 14.7846 16.84 14.476 16.7971C14.1674 16.7543 13.8417 16.6086 13.516 16.3686L10.2503 13.96L6.96743 16.3686C6.64171 16.6086 6.33314 16.7543 6.016 16.7971C5.70743 16.84 5.42457 16.7629 5.16742 16.5657H5.176Z" fill="black"/>
<path d="M22.3875 15.8801V3.19434H25.5589V13.2315H28.5246V15.8801H22.3875Z" fill="black"/>
<path d="M29.7674 15.88L28.1646 6.23718H31.216L31.9446 13.3H31.996L32.6903 6.23718H35.7417L34.1303 15.88H29.7588H29.7674Z" fill="black"/>
<path d="M40.3875 16.0429C39.9332 16.0429 39.5389 15.9314 39.2132 15.7086C38.8875 15.4857 38.6389 15.1686 38.4589 14.7486C38.2789 14.3286 38.1932 13.84 38.1932 13.2743V6.24573H41.2703V12.6829C41.2703 12.9143 41.3132 13.1029 41.3989 13.2486C41.4846 13.3943 41.6389 13.4629 41.8446 13.4629C41.9303 13.4629 42.016 13.4457 42.0846 13.4114C42.1617 13.3772 42.2217 13.3257 42.2732 13.2572C42.3246 13.1886 42.3675 13.1029 42.3846 13C42.4103 12.8972 42.4189 12.7857 42.4189 12.6657V6.26287H45.4875V15.9057H42.4189V14.56H42.3503C42.2475 14.8772 42.1103 15.1429 41.9217 15.3743C41.7417 15.5972 41.5189 15.7686 41.2617 15.8886C41.0046 16.0086 40.7046 16.0686 40.3703 16.0686L40.3875 16.0429Z" fill="black"/>
<path d="M46.2074 18.9829V6.23714H49.276V7.53142H49.3445C49.4388 7.22285 49.576 6.95714 49.7645 6.74285C49.9531 6.52857 50.176 6.36572 50.4417 6.25429C50.7074 6.14286 51.0074 6.09143 51.3417 6.09143C51.8131 6.09143 52.2245 6.21142 52.576 6.44285C52.9274 6.67428 53.2017 7.01714 53.3903 7.45428C53.5788 7.89143 53.6731 8.41429 53.6731 9.02286V13.1114C53.6731 13.7286 53.5788 14.26 53.3903 14.6971C53.2017 15.1343 52.9274 15.4686 52.5845 15.7C52.2417 15.9314 51.8217 16.0514 51.3503 16.0514C51.0245 16.0514 50.7331 15.9914 50.476 15.88C50.2188 15.7686 49.9874 15.5971 49.8074 15.3743C49.6188 15.1514 49.4645 14.8943 49.3531 14.6029H49.2931V19H46.2245L46.2074 18.9829ZM49.9274 13.4457C50.0474 13.4457 50.1588 13.4114 50.2531 13.3514C50.3474 13.2914 50.4245 13.2057 50.476 13.1029C50.5274 13 50.5531 12.8714 50.5531 12.7257V9.38286C50.5531 9.24571 50.5274 9.12571 50.476 9.02286C50.4245 8.91143 50.356 8.83428 50.2531 8.77428C50.1588 8.71428 50.0474 8.68857 49.9274 8.68857C49.7903 8.68857 49.6703 8.72285 49.5674 8.77428C49.4731 8.83428 49.396 8.92 49.3445 9.02286C49.2931 9.13429 49.2674 9.25428 49.2674 9.38286V12.7257C49.2674 12.8629 49.2931 12.9829 49.3531 13.1029C49.4045 13.2143 49.4817 13.3 49.576 13.36C49.6703 13.42 49.7817 13.4457 49.9274 13.4457Z" fill="black"/>
<path d="M55.9017 16.0257C55.4474 16.0257 55.0531 15.8715 54.736 15.5629C54.4103 15.2543 54.256 14.8686 54.256 14.4143C54.256 13.96 54.4188 13.5915 54.736 13.2915C55.0617 12.9829 55.4474 12.8372 55.9017 12.8372C56.356 12.8372 56.7503 12.9915 57.0674 13.2915C57.3846 13.5915 57.5474 13.9686 57.5474 14.4143C57.5474 14.86 57.3846 15.2543 57.0674 15.5629C56.7503 15.8715 56.356 16.0257 55.9017 16.0257ZM54.5817 11.6286L54.3074 3.20288H57.4788L57.2046 11.6286H54.5731H54.5817Z" fill="black"/>
</svg>
