<svg width="76" height="20" viewBox="0 0 76 20" fill="none" xmlns="http://www.w3.org/2000/svg">
<path d="M4.52 11.3V1.67H1V0H6.62V11.42C6.62 12.84 7.43 13.42 8.55 13.42C9.11 13.42 9.71 13.28 10.39 12.99L10.89 14.54C9.91 14.93 9.22 15.14 8.06 15.14C5.76 15.14 4.52 13.77 4.52 11.3Z" fill="black"/>
<path d="M12.23 9.78C12.23 6.35 14.64 4.38 17.34 4.38C20.04 4.38 22.45 6.34 22.45 9.78C22.45 13.22 20.04 15.14 17.34 15.14C14.64 15.14 12.23 13.18 12.23 9.78ZM20.31 9.78C20.31 7.57 19.16 6.10001 17.34 6.10001C15.52 6.10001 14.37 7.57 14.37 9.78C14.37 11.99 15.52 13.43 17.34 13.43C19.16 13.43 20.31 11.98 20.31 9.78Z" fill="black"/>
<path d="M23.51 4.63H25.63L27.8 10.18C28.18 11.21 28.54 12.24 28.88 13.25H28.96C29.3 12.24 29.63 11.21 30.03 10.18L32.2 4.63H34.21L30.08 14.89H27.72L23.51 4.63Z" fill="black"/>
<path d="M35.34 9.74001C35.34 6.40001 37.86 4.38 40.6 4.38C43.61 4.38 45.32 6.36 45.32 9.22C45.32 9.66 45.27 10.09 45.22 10.36H36.78V8.83H43.92L43.47 9.34001C43.47 7.12001 42.39 6 40.66 6C38.93 6 37.39 7.33 37.39 9.75C37.39 12.17 38.97 13.51 41.18 13.51C42.33 13.51 43.25 13.16 44.18 12.61L44.91 13.93C43.86 14.63 42.49 15.15 40.92 15.15C37.81 15.15 35.35 13.17 35.35 9.75L35.34 9.74001Z" fill="black"/>
<path d="M51.17 8.72002H47.38V7.19002H51.17V3.15002H52.78V7.19002H56.57V8.72002H52.78V12.76H51.17V8.72002Z" fill="black"/>
<path d="M62.52 8.72002H58.73V7.19002H62.52V3.15002H64.13V7.19002H67.92V8.72002H64.13V12.76H62.52V8.72002Z" fill="black"/>
<path d="M70.88 18.11C72.68 17.35 73.57 16.23 73.55 14.6L73.24 12.52L74.44 14.3C74.09 14.67 73.65 14.78 73.21 14.78C72.23 14.78 71.41 14.19 71.41 13.06C71.41 11.93 72.26 11.32 73.27 11.32C74.63 11.32 75.34 12.43 75.34 14.24C75.34 16.75 73.92 18.52 71.46 19.39L70.89 18.12L70.88 18.11ZM71.24 5.85002C71.24 4.72002 72.06 3.89001 73.13 3.89001C74.2 3.89001 75.02 4.72002 75.02 5.85002C75.02 6.98002 74.2 7.81001 73.13 7.81001C72.06 7.81001 71.24 7.00002 71.24 5.85002Z" fill="black"/>
</svg>
