<svg width="20" height="20" viewBox="0 0 20 20" fill="none" xmlns="http://www.w3.org/2000/svg">
<path d="M10.72 16.5699H8.29001V18.9999H10.72V16.5699Z" fill="black"/>
<path d="M13.15 14.14H10.72V16.57H13.15V14.14Z" fill="black"/>
<path d="M10.72 14.14H8.29001V16.57H10.72V14.14Z" fill="black"/>
<path d="M8.28999 14.14H5.85999V16.57H8.28999V14.14Z" fill="black"/>
<path d="M15.58 11.71H13.15V14.14H15.58V11.71Z" fill="black"/>
<path d="M13.15 11.71H10.72V14.14H13.15V11.71Z" fill="black"/>
<path d="M10.72 11.71H8.29001V14.14H10.72V11.71Z" fill="black"/>
<path d="M8.28999 11.71H5.85999V14.14H8.28999V11.71Z" fill="black"/>
<path d="M5.85999 11.71H3.42999V14.14H5.85999V11.71Z" fill="black"/>
<path d="M18.01 9.29004H15.58V11.72H18.01V9.29004Z" fill="black"/>
<path d="M15.58 9.29004H13.15V11.72H15.58V9.29004Z" fill="black"/>
<path d="M13.15 9.29004H10.72V11.72H13.15V9.29004Z" fill="black"/>
<path d="M10.72 9.29004H8.29001V11.72H10.72V9.29004Z" fill="black"/>
<path d="M8.28999 9.29004H5.85999V11.72H8.28999V9.29004Z" fill="black"/>
<path d="M5.85999 9.29004H3.42999V11.72H5.85999V9.29004Z" fill="black"/>
<path d="M3.43 9.29004H1V11.72H3.43V9.29004Z" fill="black"/>
<path d="M18.01 6.85999H15.58V9.28999H18.01V6.85999Z" fill="black"/>
<path d="M15.58 6.85999H13.15V9.28999H15.58V6.85999Z" fill="black"/>
<path d="M13.15 6.85999H10.72V9.28999H13.15V6.85999Z" fill="black"/>
<path d="M10.72 6.85999H8.29001V9.28999H10.72V6.85999Z" fill="black"/>
<path d="M8.28999 6.85999H5.85999V9.28999H8.28999V6.85999Z" fill="black"/>
<path d="M5.85999 6.85999H3.42999V9.28999H5.85999V6.85999Z" fill="black"/>
<path d="M3.43 6.85999H1V9.28999H3.43V6.85999Z" fill="black"/>
<path d="M18.01 4.43005H15.58V6.86005H18.01V4.43005Z" fill="black"/>
<path d="M15.58 4.43005H13.15V6.86005H15.58V4.43005Z" fill="black"/>
<path d="M13.15 4.43005H10.72V6.86005H13.15V4.43005Z" fill="black"/>
<path d="M10.72 4.43005H8.29001V6.86005H10.72V4.43005Z" fill="black"/>
<path d="M8.28999 4.43005H5.85999V6.86005H8.28999V4.43005Z" fill="black"/>
<path d="M5.85999 4.43005H3.42999V6.86005H5.85999V4.43005Z" fill="black"/>
<path d="M3.43 4.43005H1V6.86005H3.43V4.43005Z" fill="black"/>
<path d="M15.58 2H13.15V4.43H15.58V2Z" fill="black"/>
<path d="M13.15 2H10.72V4.43H13.15V2Z" fill="black"/>
<path d="M8.28999 2H5.85999V4.43H8.28999V2Z" fill="black"/>
<path d="M5.85999 2H3.42999V4.43H5.85999V2Z" fill="black"/>
</svg>
