<svg width="20" height="20" viewBox="0 0 20 20" fill="none" xmlns="http://www.w3.org/2000/svg">
<path d="M1 12.3203V8.51974L9.40944 5.06567V8.41475L1.41995 11.4174V9.40163L9.40944 12.3938V15.7848L1 12.3203Z" fill="black"/>
<path d="M15.0367 18C14.0499 18 13.21 17.8215 12.5171 17.4751C11.8136 17.1286 11.2782 16.6247 10.8898 15.9633C10.5013 15.3123 10.3123 14.5249 10.3123 13.6325V12.6562H14.0289V13.8845C14.0289 14.0735 14.0709 14.2415 14.1339 14.3884C14.2073 14.5249 14.3123 14.6404 14.4383 14.7139C14.5748 14.7979 14.7323 14.8294 14.9108 14.8294C15.0892 14.8294 15.2467 14.7874 15.3832 14.7034C15.5197 14.6194 15.6142 14.5144 15.6877 14.3779C15.7506 14.2415 15.7821 14.0735 15.7821 13.8635V12.1627C15.7821 11.8373 15.6877 11.5958 15.5092 11.4173C15.3307 11.2493 15.0682 11.1549 14.7323 11.1549H13.5249V8.4252H14.6903C14.9108 8.4252 15.0892 8.3937 15.2362 8.32021C15.3832 8.24672 15.4987 8.14173 15.5617 8.00525C15.6247 7.86877 15.6667 7.70079 15.6667 7.50132V5.89502C15.6667 5.70604 15.6352 5.53806 15.5722 5.40158C15.5092 5.2651 15.4147 5.16011 15.2887 5.08662C15.1627 5.01312 15.0157 4.97113 14.8583 4.97113C14.6903 4.97113 14.5433 5.01312 14.4173 5.08662C14.2913 5.16011 14.1968 5.27559 14.1234 5.41207C14.0499 5.54855 14.0184 5.71654 14.0184 5.90551V7.23885H10.5748V6.05249C10.5748 5.2231 10.7428 4.50919 11.0997 3.90027C11.4567 3.29134 11.9606 2.8189 12.622 2.49344C13.2835 2.16798 14.0709 2 14.9842 2C15.8976 2 16.6745 2.15749 17.315 2.48295C17.9554 2.80841 18.4488 3.24934 18.7953 3.83727C19.1312 4.4252 19.3097 5.12861 19.3097 5.94751V6.57743C19.3097 7.12336 19.2257 7.6063 19.0577 8.02625C18.8898 8.4462 18.6378 8.79265 18.3018 9.06562C17.9659 9.33858 17.5354 9.52756 17.021 9.62205V9.70604C17.8924 9.81102 18.5643 10.126 19.0262 10.6824C19.4882 11.2283 19.7192 11.9738 19.7192 12.9186V13.6221C19.7192 14.5354 19.5302 15.3123 19.1522 15.9633C18.7743 16.6142 18.2388 17.1076 17.5354 17.4646C16.832 17.8215 16.0026 18 15.0367 18Z" fill="black"/>
</svg>
