<svg width="20" height="20" viewBox="0 0 20 20" fill="none" xmlns="http://www.w3.org/2000/svg">
<path d="M17.0114 16.9303H15.9417V18H17.0114V16.9303Z" fill="black"/>
<path d="M15.9417 16.9303H14.872V18H15.9417V16.9303Z" fill="black"/>
<path d="M14.872 16.9303H13.8023V18H14.872V16.9303Z" fill="black"/>
<path d="M13.8023 16.9303H12.7326V18H13.8023V16.9303Z" fill="black"/>
<path d="M12.744 16.9303H11.6743V18H12.744V16.9303Z" fill="black"/>
<path d="M11.6743 16.9303H10.6046V18H11.6743V16.9303Z" fill="black"/>
<path d="M10.6046 16.9303H9.53485V18H10.6046V16.9303Z" fill="black"/>
<path d="M9.53485 16.9303H8.46515V18H9.53485V16.9303Z" fill="black"/>
<path d="M17.0114 15.8719H15.9417V16.9417H17.0114V15.8719Z" fill="black"/>
<path d="M15.9417 15.8719H14.872V16.9417H15.9417V15.8719Z" fill="black"/>
<path d="M14.872 15.8719H13.8023V16.9417H14.872V15.8719Z" fill="black"/>
<path d="M13.8023 15.8719H12.7326V16.9417H13.8023V15.8719Z" fill="black"/>
<path d="M12.744 15.8719H11.6743V16.9417H12.744V15.8719Z" fill="black"/>
<path d="M11.6743 15.8719H10.6046V16.9417H11.6743V15.8719Z" fill="black"/>
<path d="M10.6046 15.8719H9.53485V16.9417H10.6046V15.8719Z" fill="black"/>
<path d="M9.53485 15.8719H8.46515V16.9417H9.53485V15.8719Z" fill="black"/>
<path d="M8.47653 15.8719H7.40683V16.9417H8.47653V15.8719Z" fill="black"/>
<path d="M7.40683 15.8719H6.33713V16.9417H7.40683V15.8719Z" fill="black"/>
<path d="M5.26743 15.8719H4.19772V16.9417H5.26743V15.8719Z" fill="black"/>
<path d="M4.20911 15.8719H3.1394V16.9417H4.20911V15.8719Z" fill="black"/>
<path d="M3.1394 15.8719H2.0697V16.9417H3.1394V15.8719Z" fill="black"/>
<path d="M17.0114 14.8022H15.9417V15.8719H17.0114V14.8022Z" fill="black"/>
<path d="M15.9417 14.8022H14.872V15.8719H15.9417V14.8022Z" fill="black"/>
<path d="M14.872 14.8022H13.8023V15.8719H14.872V14.8022Z" fill="black"/>
<path d="M13.8023 14.8022H12.7326V15.8719H13.8023V14.8022Z" fill="black"/>
<path d="M12.744 14.8022H11.6743V15.8719H12.744V14.8022Z" fill="black"/>
<path d="M11.6743 14.8022H10.6046V15.8719H11.6743V14.8022Z" fill="black"/>
<path d="M10.6046 14.8022H9.53485V15.8719H10.6046V14.8022Z" fill="black"/>
<path d="M9.53485 14.8022H8.46515V15.8719H9.53485V14.8022Z" fill="black"/>
<path d="M8.47653 14.8022H7.40683V15.8719H8.47653V14.8022Z" fill="black"/>
<path d="M7.40683 14.8022H6.33713V15.8719H7.40683V14.8022Z" fill="black"/>
<path d="M5.26743 14.8022H4.19772V15.8719H5.26743V14.8022Z" fill="black"/>
<path d="M4.20911 14.8022H3.1394V15.8719H4.20911V14.8022Z" fill="black"/>
<path d="M3.1394 14.8022H2.0697V15.8719H3.1394V14.8022Z" fill="black"/>
<path d="M18.0697 13.7327H17V14.8024H18.0697V13.7327Z" fill="black"/>
<path d="M17.0114 13.7327H15.9417V14.8024H17.0114V13.7327Z" fill="black"/>
<path d="M15.9417 13.7327H14.872V14.8024H15.9417V13.7327Z" fill="black"/>
<path d="M14.872 13.7327H13.8023V14.8024H14.872V13.7327Z" fill="black"/>
<path d="M13.8023 13.7327H12.7326V14.8024H13.8023V13.7327Z" fill="black"/>
<path d="M12.744 13.7327H11.6743V14.8024H12.744V13.7327Z" fill="black"/>
<path d="M11.6743 13.7327H10.6046V14.8024H11.6743V13.7327Z" fill="black"/>
<path d="M10.6046 13.7327H9.53485V14.8024H10.6046V13.7327Z" fill="black"/>
<path d="M9.53485 13.7327H8.46515V14.8024H9.53485V13.7327Z" fill="black"/>
<path d="M8.47653 13.7327H7.40683V14.8024H8.47653V13.7327Z" fill="black"/>
<path d="M7.40683 13.7327H6.33713V14.8024H7.40683V13.7327Z" fill="black"/>
<path d="M6.33713 13.7327H5.26743V14.8024H6.33713V13.7327Z" fill="black"/>
<path d="M4.20911 13.7327H3.1394V14.8024H4.20911V13.7327Z" fill="black"/>
<path d="M3.1394 13.7327H2.0697V14.8024H3.1394V13.7327Z" fill="black"/>
<path d="M2.0697 13.7327H1V14.8024H2.0697V13.7327Z" fill="black"/>
<path d="M18.0697 12.6743H17V13.744H18.0697V12.6743Z" fill="black"/>
<path d="M17.0114 12.6743H15.9417V13.744H17.0114V12.6743Z" fill="black"/>
<path d="M15.9417 12.6743H14.872V13.744H15.9417V12.6743Z" fill="black"/>
<path d="M14.872 12.6743H13.8023V13.744H14.872V12.6743Z" fill="black"/>
<path d="M13.8023 12.6743H12.7326V13.744H13.8023V12.6743Z" fill="black"/>
<path d="M12.744 12.6743H11.6743V13.744H12.744V12.6743Z" fill="black"/>
<path d="M11.6743 12.6743H10.6046V13.744H11.6743V12.6743Z" fill="black"/>
<path d="M10.6046 12.6743H9.53485V13.744H10.6046V12.6743Z" fill="black"/>
<path d="M9.53485 12.6743H8.46515V13.744H9.53485V12.6743Z" fill="black"/>
<path d="M8.47653 12.6743H7.40683V13.744H8.47653V12.6743Z" fill="black"/>
<path d="M7.40683 12.6743H6.33713V13.744H7.40683V12.6743Z" fill="black"/>
<path d="M6.33713 12.6743H5.26743V13.744H6.33713V12.6743Z" fill="black"/>
<path d="M4.20911 12.6743H3.1394V13.744H4.20911V12.6743Z" fill="black"/>
<path d="M3.1394 12.6743H2.0697V13.744H3.1394V12.6743Z" fill="black"/>
<path d="M2.0697 12.6743H1V13.744H2.0697V12.6743Z" fill="black"/>
<path d="M18.0697 11.6045H17V12.6742H18.0697V11.6045Z" fill="black"/>
<path d="M17.0114 11.6045H15.9417V12.6742H17.0114V11.6045Z" fill="black"/>
<path d="M15.9417 11.6045H14.872V12.6742H15.9417V11.6045Z" fill="black"/>
<path d="M14.872 11.6045H13.8023V12.6742H14.872V11.6045Z" fill="black"/>
<path d="M13.8023 11.6045H12.7326V12.6742H13.8023V11.6045Z" fill="black"/>
<path d="M12.744 11.6045H11.6743V12.6742H12.744V11.6045Z" fill="black"/>
<path d="M11.6743 11.6045H10.6046V12.6742H11.6743V11.6045Z" fill="black"/>
<path d="M10.6046 11.6045H9.53485V12.6742H10.6046V11.6045Z" fill="black"/>
<path d="M9.53485 11.6045H8.46515V12.6742H9.53485V11.6045Z" fill="black"/>
<path d="M8.47653 11.6045H7.40683V12.6742H8.47653V11.6045Z" fill="black"/>
<path d="M7.40683 11.6045H6.33713V12.6742H7.40683V11.6045Z" fill="black"/>
<path d="M6.33713 11.6045H5.26743V12.6742H6.33713V11.6045Z" fill="black"/>
<path d="M4.20911 11.6045H3.1394V12.6742H4.20911V11.6045Z" fill="black"/>
<path d="M3.1394 11.6045H2.0697V12.6742H3.1394V11.6045Z" fill="black"/>
<path d="M2.0697 11.6045H1V12.6742H2.0697V11.6045Z" fill="black"/>
<path d="M18.0697 10.5349H17V11.6046H18.0697V10.5349Z" fill="black"/>
<path d="M17.0114 10.5349H15.9417V11.6046H17.0114V10.5349Z" fill="black"/>
<path d="M15.9417 10.5349H14.872V11.6046H15.9417V10.5349Z" fill="black"/>
<path d="M14.872 10.5349H13.8023V11.6046H14.872V10.5349Z" fill="black"/>
<path d="M13.8023 10.5349H12.7326V11.6046H13.8023V10.5349Z" fill="black"/>
<path d="M12.744 10.5349H11.6743V11.6046H12.744V10.5349Z" fill="black"/>
<path d="M11.6743 10.5349H10.6046V11.6046H11.6743V10.5349Z" fill="black"/>
<path d="M10.6046 10.5349H9.53485V11.6046H10.6046V10.5349Z" fill="black"/>
<path d="M9.53485 10.5349H8.46515V11.6046H9.53485V10.5349Z" fill="black"/>
<path d="M8.47653 10.5349H7.40683V11.6046H8.47653V10.5349Z" fill="black"/>
<path d="M7.40683 10.5349H6.33713V11.6046H7.40683V10.5349Z" fill="black"/>
<path d="M6.33713 10.5349H5.26743V11.6046H6.33713V10.5349Z" fill="black"/>
<path d="M4.20911 10.5349H3.1394V11.6046H4.20911V10.5349Z" fill="black"/>
<path d="M3.1394 10.5349H2.0697V11.6046H3.1394V10.5349Z" fill="black"/>
<path d="M2.0697 10.5349H1V11.6046H2.0697V10.5349Z" fill="black"/>
<path d="M18.0697 9.46521H17V10.5349H18.0697V9.46521Z" fill="black"/>
<path d="M17.0114 9.46521H15.9417V10.5349H17.0114V9.46521Z" fill="black"/>
<path d="M15.9417 9.46521H14.872V10.5349H15.9417V9.46521Z" fill="black"/>
<path d="M14.872 9.46521H13.8023V10.5349H14.872V9.46521Z" fill="black"/>
<path d="M13.8023 9.46521H12.7326V10.5349H13.8023V9.46521Z" fill="black"/>
<path d="M12.744 9.46521H11.6743V10.5349H12.744V9.46521Z" fill="black"/>
<path d="M11.6743 9.46521H10.6046V10.5349H11.6743V9.46521Z" fill="black"/>
<path d="M10.6046 9.46521H9.53485V10.5349H10.6046V9.46521Z" fill="black"/>
<path d="M9.53485 9.46521H8.46515V10.5349H9.53485V9.46521Z" fill="black"/>
<path d="M8.47653 9.46521H7.40683V10.5349H8.47653V9.46521Z" fill="black"/>
<path d="M7.40683 9.46521H6.33713V10.5349H7.40683V9.46521Z" fill="black"/>
<path d="M6.33713 9.46521H5.26743V10.5349H6.33713V9.46521Z" fill="black"/>
<path d="M5.26743 9.46521H4.19772V10.5349H5.26743V9.46521Z" fill="black"/>
<path d="M4.20911 9.46521H3.1394V10.5349H4.20911V9.46521Z" fill="black"/>
<path d="M3.1394 9.46521H2.0697V10.5349H3.1394V9.46521Z" fill="black"/>
<path d="M18.0697 8.39539H17V9.46509H18.0697V8.39539Z" fill="black"/>
<path d="M17.0114 8.39539H15.9417V9.46509H17.0114V8.39539Z" fill="black"/>
<path d="M15.9417 8.39539H14.872V9.46509H15.9417V8.39539Z" fill="black"/>
<path d="M14.872 8.39539H13.8023V9.46509H14.872V8.39539Z" fill="black"/>
<path d="M13.8023 8.39539H12.7326V9.46509H13.8023V8.39539Z" fill="black"/>
<path d="M12.744 8.39539H11.6743V9.46509H12.744V8.39539Z" fill="black"/>
<path d="M11.6743 8.39539H10.6046V9.46509H11.6743V8.39539Z" fill="black"/>
<path d="M10.6046 8.39539H9.53485V9.46509H10.6046V8.39539Z" fill="black"/>
<path d="M9.53485 8.39539H8.46515V9.46509H9.53485V8.39539Z" fill="black"/>
<path d="M8.47653 8.39539H7.40683V9.46509H8.47653V8.39539Z" fill="black"/>
<path d="M7.40683 8.39539H6.33713V9.46509H7.40683V8.39539Z" fill="black"/>
<path d="M5.26743 8.39539H4.19772V9.46509H5.26743V8.39539Z" fill="black"/>
<path d="M4.20911 8.39539H3.1394V9.46509H4.20911V8.39539Z" fill="black"/>
<path d="M12.744 7.33704H11.6743V8.40674H12.744V7.33704Z" fill="black"/>
<path d="M11.6743 7.33704H10.6046V8.40674H11.6743V7.33704Z" fill="black"/>
<path d="M10.6046 7.33704H9.53485V8.40674H10.6046V7.33704Z" fill="black"/>
<path d="M9.53485 7.33704H8.46515V8.40674H9.53485V7.33704Z" fill="black"/>
<path d="M8.47653 7.33704H7.40683V8.40674H8.47653V7.33704Z" fill="black"/>
<path d="M12.744 6.26746H11.6743V7.33716H12.744V6.26746Z" fill="black"/>
<path d="M11.6743 6.26746H10.6046V7.33716H11.6743V6.26746Z" fill="black"/>
<path d="M10.6046 6.26746H9.53485V7.33716H10.6046V6.26746Z" fill="black"/>
<path d="M9.53485 6.26746H8.46515V7.33716H9.53485V6.26746Z" fill="black"/>
<path d="M13.8023 5.19775H12.7326V6.26746H13.8023V5.19775Z" fill="black"/>
<path d="M12.744 5.19775H11.6743V6.26746H12.744V5.19775Z" fill="black"/>
<path d="M11.6743 5.19775H10.6046V6.26746H11.6743V5.19775Z" fill="black"/>
<path d="M10.6046 5.19775H9.53485V6.26746H10.6046V5.19775Z" fill="black"/>
<path d="M13.8023 4.1394H12.7326V5.20911H13.8023V4.1394Z" fill="black"/>
<path d="M12.744 4.1394H11.6743V5.20911H12.744V4.1394Z" fill="black"/>
<path d="M11.6743 4.1394H10.6046V5.20911H11.6743V4.1394Z" fill="black"/>
<path d="M13.8023 3.06958H12.7326V4.13928H13.8023V3.06958Z" fill="black"/>
<path d="M12.744 3.06958H11.6743V4.13928H12.744V3.06958Z" fill="black"/>
<path d="M11.6743 3.06958H10.6046V4.13928H11.6743V3.06958Z" fill="black"/>
<path d="M13.8023 2H12.7326V3.0697H13.8023V2Z" fill="black"/>
<path d="M12.744 2H11.6743V3.0697H12.744V2Z" fill="black"/>
</svg>
