<svg width="20" height="20" viewBox="0 0 20 20" fill="none" xmlns="http://www.w3.org/2000/svg">
<path d="M14.2 17.0613H13.2613V17.9999H14.2V17.0613Z" fill="black"/>
<path d="M13.272 17.0613H12.3333V17.9999H13.272V17.0613Z" fill="black"/>
<path d="M12.3333 17.0613H11.3947V17.9999H12.3333V17.0613Z" fill="black"/>
<path d="M11.4053 17.0613H10.4667V17.9999H11.4053V17.0613Z" fill="black"/>
<path d="M10.4667 17.0613H9.528V17.9999H10.4667V17.0613Z" fill="black"/>
<path d="M9.53867 17.0613H8.60001V17.9999H9.53867V17.0613Z" fill="black"/>
<path d="M8.6 17.0613H7.66133V17.9999H8.6V17.0613Z" fill="black"/>
<path d="M7.67201 17.0613H6.73334V17.9999H7.67201V17.0613Z" fill="black"/>
<path d="M15.1387 16.1227H14.2V17.0613H15.1387V16.1227Z" fill="black"/>
<path d="M14.2 16.1227H13.2613V17.0613H14.2V16.1227Z" fill="black"/>
<path d="M13.272 16.1227H12.3333V17.0613H13.272V16.1227Z" fill="black"/>
<path d="M12.3333 16.1227H11.3947V17.0613H12.3333V16.1227Z" fill="black"/>
<path d="M11.4053 16.1227H10.4667V17.0613H11.4053V16.1227Z" fill="black"/>
<path d="M10.4667 16.1227H9.528V17.0613H10.4667V16.1227Z" fill="black"/>
<path d="M9.53867 16.1227H8.60001V17.0613H9.53867V16.1227Z" fill="black"/>
<path d="M8.6 16.1227H7.66133V17.0613H8.6V16.1227Z" fill="black"/>
<path d="M7.67201 16.1227H6.73334V17.0613H7.67201V16.1227Z" fill="black"/>
<path d="M15.1387 15.184H14.2V16.1226H15.1387V15.184Z" fill="black"/>
<path d="M14.2 15.184H13.2613V16.1226H14.2V15.184Z" fill="black"/>
<path d="M13.272 15.184H12.3333V16.1226H13.272V15.184Z" fill="black"/>
<path d="M12.3333 15.184H11.3947V16.1226H12.3333V15.184Z" fill="black"/>
<path d="M11.4053 15.184H10.4667V16.1226H11.4053V15.184Z" fill="black"/>
<path d="M10.4667 15.184H9.528V16.1226H10.4667V15.184Z" fill="black"/>
<path d="M9.53867 15.184H8.60001V16.1226H9.53867V15.184Z" fill="black"/>
<path d="M8.6 15.184H7.66133V16.1226H8.6V15.184Z" fill="black"/>
<path d="M7.67201 15.184H6.73334V16.1226H7.67201V15.184Z" fill="black"/>
<path d="M14.2 14.2346H13.2613V15.1733H14.2V14.2346Z" fill="black"/>
<path d="M13.272 14.2346H12.3333V15.1733H13.272V14.2346Z" fill="black"/>
<path d="M12.3333 14.2346H11.3947V15.1733H12.3333V14.2346Z" fill="black"/>
<path d="M11.4053 14.2346H10.4667V15.1733H11.4053V14.2346Z" fill="black"/>
<path d="M10.4667 14.2346H9.528V15.1733H10.4667V14.2346Z" fill="black"/>
<path d="M9.53867 14.2346H8.60001V15.1733H9.53867V14.2346Z" fill="black"/>
<path d="M8.6 14.2346H7.66133V15.1733H8.6V14.2346Z" fill="black"/>
<path d="M7.67201 14.2346H6.73334V15.1733H7.67201V14.2346Z" fill="black"/>
<path d="M12.3333 13.296H11.3947V14.2347H12.3333V13.296Z" fill="black"/>
<path d="M11.4053 13.296H10.4667V14.2347H11.4053V13.296Z" fill="black"/>
<path d="M10.4667 13.296H9.528V14.2347H10.4667V13.296Z" fill="black"/>
<path d="M12.3333 12.3573H11.3947V13.296H12.3333V12.3573Z" fill="black"/>
<path d="M11.4053 12.3573H10.4667V13.296H11.4053V12.3573Z" fill="black"/>
<path d="M10.4667 12.3573H9.528V13.296H10.4667V12.3573Z" fill="black"/>
<path d="M12.3333 11.4186H11.3947V12.3572H12.3333V11.4186Z" fill="black"/>
<path d="M11.4053 11.4186H10.4667V12.3572H11.4053V11.4186Z" fill="black"/>
<path d="M10.4667 11.4186H9.528V12.3572H10.4667V11.4186Z" fill="black"/>
<path d="M13.272 10.4692H12.3333V11.4079H13.272V10.4692Z" fill="black"/>
<path d="M12.3333 10.4692H11.3947V11.4079H12.3333V10.4692Z" fill="black"/>
<path d="M11.4053 10.4692H10.4667V11.4079H11.4053V10.4692Z" fill="black"/>
<path d="M10.4667 10.4692H9.528V11.4079H10.4667V10.4692Z" fill="black"/>
<path d="M9.53867 10.4692H8.60001V11.4079H9.53867V10.4692Z" fill="black"/>
<path d="M8.6 10.4692H7.66133V11.4079H8.6V10.4692Z" fill="black"/>
<path d="M13.272 9.53076H12.3333V10.4694H13.272V9.53076Z" fill="black"/>
<path d="M12.3333 9.53076H11.3947V10.4694H12.3333V9.53076Z" fill="black"/>
<path d="M11.4053 9.53076H10.4667V10.4694H11.4053V9.53076Z" fill="black"/>
<path d="M10.4667 9.53076H9.528V10.4694H10.4667V9.53076Z" fill="black"/>
<path d="M9.53867 9.53076H8.60001V10.4694H9.53867V9.53076Z" fill="black"/>
<path d="M8.6 9.53076H7.66133V10.4694H8.6V9.53076Z" fill="black"/>
<path d="M15.1387 8.59204H14.2V9.53071H15.1387V8.59204Z" fill="black"/>
<path d="M14.2 8.59204H13.2613V9.53071H14.2V8.59204Z" fill="black"/>
<path d="M13.272 8.59204H12.3333V9.53071H13.272V8.59204Z" fill="black"/>
<path d="M12.3333 8.59204H11.3947V9.53071H12.3333V8.59204Z" fill="black"/>
<path d="M11.4053 8.59204H10.4667V9.53071H11.4053V8.59204Z" fill="black"/>
<path d="M10.4667 8.59204H9.528V9.53071H10.4667V8.59204Z" fill="black"/>
<path d="M9.53867 8.59204H8.60001V9.53071H9.53867V8.59204Z" fill="black"/>
<path d="M8.6 8.59204H7.66133V9.53071H8.6V8.59204Z" fill="black"/>
<path d="M7.67201 8.59204H6.73334V9.53071H7.67201V8.59204Z" fill="black"/>
<path d="M6.73333 8.59204H5.79466V9.53071H6.73333V8.59204Z" fill="black"/>
<path d="M5.80534 8.59204H4.86667V9.53071H5.80534V8.59204Z" fill="black"/>
<path d="M17.0053 7.65344H16.0667V8.59211H17.0053V7.65344Z" fill="black"/>
<path d="M16.0667 7.65344H15.128V8.59211H16.0667V7.65344Z" fill="black"/>
<path d="M15.1387 7.65344H14.2V8.59211H15.1387V7.65344Z" fill="black"/>
<path d="M14.2 7.65344H13.2613V8.59211H14.2V7.65344Z" fill="black"/>
<path d="M13.272 7.65344H12.3333V8.59211H13.272V7.65344Z" fill="black"/>
<path d="M12.3333 7.65344H11.3947V8.59211H12.3333V7.65344Z" fill="black"/>
<path d="M11.4053 7.65344H10.4667V8.59211H11.4053V7.65344Z" fill="black"/>
<path d="M10.4667 7.65344H9.528V8.59211H10.4667V7.65344Z" fill="black"/>
<path d="M9.53867 7.65344H8.60001V8.59211H9.53867V7.65344Z" fill="black"/>
<path d="M8.6 7.65344H7.66133V8.59211H8.6V7.65344Z" fill="black"/>
<path d="M7.67201 7.65344H6.73334V8.59211H7.67201V7.65344Z" fill="black"/>
<path d="M6.73333 7.65344H5.79466V8.59211H6.73333V7.65344Z" fill="black"/>
<path d="M5.80534 7.65344H4.86667V8.59211H5.80534V7.65344Z" fill="black"/>
<path d="M4.86666 7.65344H3.92799V8.59211H4.86666V7.65344Z" fill="black"/>
<path d="M17.0053 6.70398H16.0667V7.64265H17.0053V6.70398Z" fill="black"/>
<path d="M16.0667 6.70398H15.128V7.64265H16.0667V6.70398Z" fill="black"/>
<path d="M15.1387 6.70398H14.2V7.64265H15.1387V6.70398Z" fill="black"/>
<path d="M14.2 6.70398H13.2613V7.64265H14.2V6.70398Z" fill="black"/>
<path d="M13.272 6.70398H12.3333V7.64265H13.272V6.70398Z" fill="black"/>
<path d="M12.3333 6.70398H11.3947V7.64265H12.3333V6.70398Z" fill="black"/>
<path d="M11.4053 6.70398H10.4667V7.64265H11.4053V6.70398Z" fill="black"/>
<path d="M10.4667 6.70398H9.528V7.64265H10.4667V6.70398Z" fill="black"/>
<path d="M9.53867 6.70398H8.60001V7.64265H9.53867V6.70398Z" fill="black"/>
<path d="M8.6 6.70398H7.66133V7.64265H8.6V6.70398Z" fill="black"/>
<path d="M7.67201 6.70398H6.73334V7.64265H7.67201V6.70398Z" fill="black"/>
<path d="M6.73333 6.70398H5.79466V7.64265H6.73333V6.70398Z" fill="black"/>
<path d="M5.80534 6.70398H4.86667V7.64265H5.80534V6.70398Z" fill="black"/>
<path d="M4.86666 6.70398H3.92799V7.64265H4.86666V6.70398Z" fill="black"/>
<path d="M17.9333 5.76538H16.9947V6.70405H17.9333V5.76538Z" fill="black"/>
<path d="M17.0053 5.76538H16.0667V6.70405H17.0053V5.76538Z" fill="black"/>
<path d="M15.1387 5.76538H14.2V6.70405H15.1387V5.76538Z" fill="black"/>
<path d="M14.2 5.76538H13.2613V6.70405H14.2V5.76538Z" fill="black"/>
<path d="M13.272 5.76538H12.3333V6.70405H13.272V5.76538Z" fill="black"/>
<path d="M12.3333 5.76538H11.3947V6.70405H12.3333V5.76538Z" fill="black"/>
<path d="M11.4053 5.76538H10.4667V6.70405H11.4053V5.76538Z" fill="black"/>
<path d="M10.4667 5.76538H9.528V6.70405H10.4667V5.76538Z" fill="black"/>
<path d="M9.53867 5.76538H8.60001V6.70405H9.53867V5.76538Z" fill="black"/>
<path d="M8.6 5.76538H7.66133V6.70405H8.6V5.76538Z" fill="black"/>
<path d="M7.67201 5.76538H6.73334V6.70405H7.67201V5.76538Z" fill="black"/>
<path d="M6.73333 5.76538H5.79466V6.70405H6.73333V5.76538Z" fill="black"/>
<path d="M4.86666 5.76538H3.92799V6.70405H4.86666V5.76538Z" fill="black"/>
<path d="M3.93867 5.76538H3V6.70405H3.93867V5.76538Z" fill="black"/>
<path d="M17.9333 4.82666H16.9947V5.76533H17.9333V4.82666Z" fill="black"/>
<path d="M15.1387 4.82666H14.2V5.76533H15.1387V4.82666Z" fill="black"/>
<path d="M14.2 4.82666H13.2613V5.76533H14.2V4.82666Z" fill="black"/>
<path d="M13.272 4.82666H12.3333V5.76533H13.272V4.82666Z" fill="black"/>
<path d="M12.3333 4.82666H11.3947V5.76533H12.3333V4.82666Z" fill="black"/>
<path d="M11.4053 4.82666H10.4667V5.76533H11.4053V4.82666Z" fill="black"/>
<path d="M10.4667 4.82666H9.528V5.76533H10.4667V4.82666Z" fill="black"/>
<path d="M9.53867 4.82666H8.60001V5.76533H9.53867V4.82666Z" fill="black"/>
<path d="M8.6 4.82666H7.66133V5.76533H8.6V4.82666Z" fill="black"/>
<path d="M7.67201 4.82666H6.73334V5.76533H7.67201V4.82666Z" fill="black"/>
<path d="M6.73333 4.82666H5.79466V5.76533H6.73333V4.82666Z" fill="black"/>
<path d="M4.86666 4.82666H3.92799V5.76533H4.86666V4.82666Z" fill="black"/>
<path d="M3.93867 4.82666H3V5.76533H3.93867V4.82666Z" fill="black"/>
<path d="M17.9333 3.88806H16.9947V4.82673H17.9333V3.88806Z" fill="black"/>
<path d="M17.0053 3.88806H16.0667V4.82673H17.0053V3.88806Z" fill="black"/>
<path d="M16.0667 3.88806H15.128V4.82673H16.0667V3.88806Z" fill="black"/>
<path d="M15.1387 3.88806H14.2V4.82673H15.1387V3.88806Z" fill="black"/>
<path d="M14.2 3.88806H13.2613V4.82673H14.2V3.88806Z" fill="black"/>
<path d="M13.272 3.88806H12.3333V4.82673H13.272V3.88806Z" fill="black"/>
<path d="M12.3333 3.88806H11.3947V4.82673H12.3333V3.88806Z" fill="black"/>
<path d="M11.4053 3.88806H10.4667V4.82673H11.4053V3.88806Z" fill="black"/>
<path d="M10.4667 3.88806H9.528V4.82673H10.4667V3.88806Z" fill="black"/>
<path d="M9.53867 3.88806H8.60001V4.82673H9.53867V3.88806Z" fill="black"/>
<path d="M8.6 3.88806H7.66133V4.82673H8.6V3.88806Z" fill="black"/>
<path d="M7.67201 3.88806H6.73334V4.82673H7.67201V3.88806Z" fill="black"/>
<path d="M6.73333 3.88806H5.79466V4.82673H6.73333V3.88806Z" fill="black"/>
<path d="M5.80534 3.88806H4.86667V4.82673H5.80534V3.88806Z" fill="black"/>
<path d="M4.86666 3.88806H3.92799V4.82673H4.86666V3.88806Z" fill="black"/>
<path d="M3.93867 3.88806H3V4.82673H3.93867V3.88806Z" fill="black"/>
<path d="M17.9333 2.93872H16.9947V3.87739H17.9333V2.93872Z" fill="black"/>
<path d="M17.0053 2.93872H16.0667V3.87739H17.0053V2.93872Z" fill="black"/>
<path d="M16.0667 2.93872H15.128V3.87739H16.0667V2.93872Z" fill="black"/>
<path d="M15.1387 2.93872H14.2V3.87739H15.1387V2.93872Z" fill="black"/>
<path d="M14.2 2.93872H13.2613V3.87739H14.2V2.93872Z" fill="black"/>
<path d="M13.272 2.93872H12.3333V3.87739H13.272V2.93872Z" fill="black"/>
<path d="M12.3333 2.93872H11.3947V3.87739H12.3333V2.93872Z" fill="black"/>
<path d="M11.4053 2.93872H10.4667V3.87739H11.4053V2.93872Z" fill="black"/>
<path d="M10.4667 2.93872H9.528V3.87739H10.4667V2.93872Z" fill="black"/>
<path d="M9.53867 2.93872H8.60001V3.87739H9.53867V2.93872Z" fill="black"/>
<path d="M8.6 2.93872H7.66133V3.87739H8.6V2.93872Z" fill="black"/>
<path d="M7.67201 2.93872H6.73334V3.87739H7.67201V2.93872Z" fill="black"/>
<path d="M6.73333 2.93872H5.79466V3.87739H6.73333V2.93872Z" fill="black"/>
<path d="M5.80534 2.93872H4.86667V3.87739H5.80534V2.93872Z" fill="black"/>
<path d="M4.86666 2.93872H3.92799V3.87739H4.86666V2.93872Z" fill="black"/>
<path d="M3.93867 2.93872H3V3.87739H3.93867V2.93872Z" fill="black"/>
<path d="M15.1387 2H14.2V2.93867H15.1387V2Z" fill="black"/>
<path d="M14.2 2H13.2613V2.93867H14.2V2Z" fill="black"/>
<path d="M13.272 2H12.3333V2.93867H13.272V2Z" fill="black"/>
<path d="M12.3333 2H11.3947V2.93867H12.3333V2Z" fill="black"/>
<path d="M11.4053 2H10.4667V2.93867H11.4053V2Z" fill="black"/>
<path d="M10.4667 2H9.528V2.93867H10.4667V2Z" fill="black"/>
<path d="M9.53867 2H8.60001V2.93867H9.53867V2Z" fill="black"/>
<path d="M8.6 2H7.66133V2.93867H8.6V2Z" fill="black"/>
<path d="M7.67201 2H6.73334V2.93867H7.67201V2Z" fill="black"/>
</svg>
