<?xml version="1.0" encoding="UTF-8"?>
<svg id="Layer_1" xmlns="http://www.w3.org/2000/svg" version="1.1" viewBox="0 0 512 512">
  <!-- Generator: Adobe Illustrator 29.1.0, SVG Export Plug-In . SVG Version: 2.1.0 Build 142)  -->
  <path d="M47.34,356.31c-4.61-8.99-8.58-18.75-11.92-29.3-3.34-10.54-5.87-21.72-7.57-33.53-1.71-11.81-2.56-24.36-2.56-37.65s.87-25.88,2.62-37.76c1.74-11.88,4.25-23.04,7.52-33.47,3.27-10.43,7.24-20.07,11.92-28.91h27.51c-2.82,6.54-5.44,13.61-7.85,21.22-2.41,7.61-4.42,15.61-6.02,24-1.6,8.39-2.84,17.19-3.73,26.4-.89,9.21-1.34,18.75-1.34,28.63s.45,19.16,1.34,28.29c.89,9.13,2.13,17.93,3.73,26.4,1.6,8.47,3.58,16.52,5.96,24.17,2.38,7.65,5.01,14.82,7.91,21.5h-27.51Z"/>
  <path d="M464.55,356.31h-27.4c2.97-6.68,5.64-13.85,8.02-21.5,2.38-7.65,4.36-15.69,5.96-24.12,1.6-8.43,2.84-17.23,3.73-26.4.89-9.17,1.34-18.62,1.34-28.35s-.45-19.44-1.34-28.68c-.89-9.25-2.15-18.06-3.79-26.46-1.63-8.39-3.64-16.37-6.02-23.95-2.38-7.57-5.01-14.63-7.91-21.16h27.4c4.75,8.84,8.76,18.49,12.03,28.96,3.27,10.47,5.77,21.63,7.52,33.47,1.74,11.85,2.62,24.41,2.62,37.71s-.85,25.86-2.56,37.71c-1.71,11.85-4.2,23.02-7.46,33.53-3.27,10.51-7.31,20.25-12.14,29.24Z"/>
</svg>