<svg width="770" height="120" viewBox="0 0 770 120" fill="none" xmlns="http://www.w3.org/2000/svg">
<g clip-path="url(#clip0_1907_5699)">
<path d="M12.0659 109.787C9.54619 104.87 7.37204 99.5254 5.54825 93.7537C3.72446 87.9821 2.33742 81.8647 1.40632 75.4063C0.47043 68.9432 0.00488281 62.0767 0.00488281 54.8021C0.00488281 47.5275 0.480029 40.6418 1.43512 34.1355C2.39021 27.6339 3.75805 21.5261 5.54825 15.8169C7.33365 10.1076 9.503 4.83534 12.0659 0H27.117C25.5716 3.57729 24.1413 7.44748 22.8215 11.6106C21.5016 15.7785 20.4026 20.1577 19.5291 24.7481C18.6556 29.3386 17.974 34.1547 17.4893 39.1965C16.9997 44.2383 16.7598 49.4578 16.7598 54.8646C16.7598 60.2713 17.0045 65.3515 17.4893 70.3501C17.974 75.3487 18.6556 80.1649 19.5291 84.7985C20.4026 89.4322 21.4872 93.8402 22.7879 98.0273C24.0885 102.214 25.5284 106.133 27.1122 109.792H12.0611L12.0659 109.787Z" fill="black"/>
<path d="M32.123 97.9937V10.0308H49.977L70.9986 80.7459L62.2876 68.1894H67.1638L66.9191 10.0356H81.663V97.9985H64.1738L43.0322 27.4035L51.6232 39.7775H46.6894L46.9917 97.9937H32.123Z" fill="black"/>
<path d="M112.72 99.0933C107.887 99.0933 103.682 98.1377 100.107 96.2267C96.5311 94.3156 93.7186 91.521 91.6692 87.8428C89.6199 84.1647 88.5928 79.8047 88.5928 74.7677V10.0308H105.712V75.075C105.712 77.0245 106.005 78.6811 106.596 80.0448C107.186 81.4085 108.007 82.4217 109.062 83.0939C110.118 83.7662 111.337 84.0975 112.72 84.0975C114.265 84.0975 115.561 83.7614 116.617 83.0939C117.673 82.4217 118.474 81.4085 119.021 80.0448C119.568 78.6859 119.842 77.0294 119.842 75.075V10.0308H136.962V74.7677C136.962 79.848 135.959 84.2079 133.948 87.8428C131.937 91.4826 129.124 94.2627 125.51 96.193C121.896 98.1233 117.629 99.0885 112.715 99.0885L112.72 99.0933Z" fill="black"/>
<path d="M143.94 97.9937V10.0308H161.06V83.3052H182.019V97.9985H143.936L143.94 97.9937Z" fill="black"/>
<path d="M187.063 97.9937V10.0308H204.183V83.3052H225.142V97.9985H187.059L187.063 97.9937Z" fill="black"/>
<path d="M240.27 109.787H225.281C226.903 106.128 228.367 102.205 229.668 98.0225C230.969 93.8354 232.053 89.437 232.927 84.8225C233.8 80.2129 234.482 75.3967 234.966 70.3741C235.456 65.3563 235.696 60.1849 235.696 54.8597C235.696 49.5346 235.451 44.2239 234.966 39.1629C234.482 34.1019 233.786 29.2761 232.893 24.6857C232 20.0952 230.901 15.7257 229.601 11.5818C228.3 7.43788 226.86 3.57729 225.276 0H240.265C242.866 4.83534 245.06 10.1172 246.845 15.8505C248.631 21.579 250.003 27.6868 250.958 34.1691C251.913 40.6514 252.388 47.5275 252.388 54.8021C252.388 62.0767 251.923 68.9576 250.987 75.4352C250.051 81.9175 248.693 88.0349 246.903 93.7826C245.113 99.535 242.9 104.865 240.26 109.787H240.27Z" fill="black"/>
<path d="M287.19 26.4287C284.67 26.4287 282.549 25.5452 280.821 23.7781C279.093 22.0111 278.229 19.908 278.229 17.4687C278.229 15.0294 279.093 12.8254 280.821 11.0968C282.549 9.36816 284.67 8.50385 287.19 8.50385C289.71 8.50385 291.75 9.36816 293.434 11.0968C295.119 12.8254 295.963 14.9478 295.963 17.4687C295.963 19.9896 295.119 22.0111 293.434 23.7781C291.75 25.5452 289.667 26.4287 287.19 26.4287ZM278.844 97.9937V32.2196H295.416V97.9937H278.844Z" fill="black"/>
<path d="M321.62 98.9684C317.152 98.9684 313.322 98.1953 310.135 96.654C306.944 95.1078 304.477 92.9375 302.735 90.1332C300.988 87.329 300.114 84.0158 300.114 80.1985L300.052 76.9669H316.197V81.0532C316.236 82.8826 316.715 84.3039 317.627 85.3219C318.539 86.3399 319.83 86.8441 321.496 86.8441C322.508 86.8441 323.372 86.652 324.087 86.263C324.798 85.8789 325.345 85.3507 325.734 84.6785C326.118 84.0062 326.314 83.2043 326.314 82.2728V80.8083C326.314 78.6955 325.786 76.9909 324.731 75.6896C323.675 74.3884 321.808 73.0679 319.125 71.7282L314.191 69.5338C311.225 68.1941 308.758 66.6096 306.79 64.7801C304.818 62.9507 303.359 60.8811 302.404 58.5619C301.448 56.2474 300.973 53.6257 300.973 50.6966V49.7843C300.973 46.1254 301.837 42.9082 303.565 40.1232C305.293 37.3382 307.707 35.1534 310.817 33.5689C313.927 31.9843 317.57 31.192 321.755 31.192C325.94 31.192 329.4 31.9651 332.386 33.5064C335.371 35.0526 337.684 37.223 339.33 40.0272C340.977 42.8314 341.778 46.1254 341.735 49.9044L341.797 53.256H326.564L326.502 49.1697C326.583 47.3834 326.185 45.9669 325.311 44.9346C324.438 43.8974 323.272 43.3788 321.808 43.3788C320.833 43.3788 319.989 43.5805 319.278 43.9886C318.568 44.3968 318.04 44.9346 317.695 45.602C317.349 46.2742 317.176 47.0953 317.176 48.0701V49.4098C317.176 50.7927 317.387 51.9499 317.815 52.8862C318.242 53.8226 318.962 54.6629 319.979 55.4167C320.992 56.1706 322.316 56.9725 323.939 57.8224L328.997 60.1368C333.792 62.3744 337.315 64.9818 339.57 67.9685C341.826 70.9551 342.954 74.7245 342.954 79.2765V80.2513C342.954 84.0302 342.071 87.3242 340.305 90.1284C338.539 92.9326 336.062 95.1078 332.87 96.6492C329.679 98.1953 325.935 98.9636 321.63 98.9636L321.62 98.9684Z" fill="black"/>
<path d="M367.686 97.9937V32.2196H384.258V40.4498H384.685C385.698 37.6888 387.253 35.4512 389.345 33.7466C391.438 32.042 394.087 31.1873 397.298 31.1873C401.766 31.1873 405.241 32.8006 407.718 36.0322C410.194 39.2638 411.433 43.6814 411.433 49.2898V97.9985H394.98V52.3389C394.98 50.2645 394.553 48.6319 393.699 47.4315C392.844 46.2311 391.544 45.6309 389.801 45.6309C388.582 45.6309 387.589 45.9238 386.816 46.5144C386.043 47.105 385.424 47.9261 384.959 48.9825C384.493 50.0388 384.258 51.3401 384.258 52.8815V97.9937H367.686Z" fill="black"/>
<path d="M439.423 98.9108C435.156 98.9108 431.321 98.0657 427.909 96.3803C424.497 94.6949 421.804 92.2268 419.836 88.9761C417.864 85.7253 416.88 81.8023 416.88 77.2118V53.0735C416.88 48.4015 417.854 44.4496 419.803 41.2181C421.751 37.9865 424.444 35.5088 427.875 33.7802C431.307 32.0516 435.156 31.1873 439.423 31.1873C443.69 31.1873 447.568 32.0516 450.937 33.7802C454.306 35.5088 456.979 37.9865 458.947 41.2181C460.915 44.4496 461.904 48.4015 461.904 53.0735V77.2118C461.904 81.8023 460.929 85.7253 458.981 88.9761C457.032 92.2268 454.34 94.6949 450.908 96.3803C447.476 98.0657 443.646 98.9108 439.423 98.9108ZM439.361 85.3748C440.498 85.3748 441.515 85.1107 442.408 84.5825C443.301 84.0543 443.963 83.3004 444.39 82.3257C444.817 81.3509 445.029 80.2129 445.029 78.9116V51.2969C445.029 49.9956 444.817 48.848 444.39 47.8541C443.963 46.8601 443.325 46.1062 442.471 45.5972C441.616 45.0883 440.623 44.8338 439.485 44.8338C438.185 44.8338 437.138 45.1075 436.346 45.6549C435.555 46.2023 434.935 46.9561 434.489 47.9117C434.043 48.8672 433.817 49.9956 433.817 51.2969V78.9116C433.817 80.2129 434.038 81.3509 434.489 82.3257C434.935 83.3004 435.555 84.0543 436.346 84.5825C437.138 85.1107 438.146 85.3748 439.361 85.3748Z" fill="black"/>
<path d="M489.256 98.6035C483.079 98.6035 478.501 97.2206 475.515 94.4596C472.53 91.6986 471.038 87.3867 471.038 81.5382V45.2083H465.552V32.2244H471.038V16.129H487.917V32.2244H495.534V45.2083H487.917V79.896C487.917 81.9271 488.344 83.3916 489.199 84.2848C490.053 85.1779 491.474 85.6244 493.465 85.6244C493.869 85.6244 494.267 85.6148 494.656 85.5956C495.04 85.5764 495.376 85.5668 495.659 85.5668V98.1233C494.766 98.2434 493.777 98.3586 492.702 98.4595C491.627 98.5603 490.48 98.6131 489.261 98.6131L489.256 98.6035Z" fill="black"/>
<path d="M519.968 97.9937V10.0308H558.661V24.7241H537.092V46.668H557.567V60.3241H537.092V83.3052H558.661V97.9985H519.968V97.9937Z" fill="black"/>
<path d="M564.113 97.9937V32.2196H580.748V40.4498H581.175C582.15 37.6456 583.695 35.4128 585.807 33.7466C587.918 32.0804 590.577 31.2449 593.788 31.2449C595.818 31.2449 597.637 31.6194 599.24 32.3733C600.843 33.1271 602.226 34.1931 603.382 35.576C604.539 36.9589 605.441 38.6443 606.094 40.6371H606.521C607.212 38.7692 608.177 37.1222 609.415 35.7009C610.653 34.2796 612.156 33.18 613.922 32.4069C615.688 31.6338 617.67 31.2497 619.864 31.2497C622.748 31.2497 625.234 31.9795 627.327 33.4441C629.419 34.9086 631.022 36.9685 632.141 39.6335C633.259 42.2937 633.816 45.4772 633.816 49.1745V98.0033H617.306V52.2236C617.306 50.8839 617.133 49.7123 616.787 48.7184C616.442 47.7244 615.914 46.9705 615.203 46.4616C614.493 45.9526 613.648 45.6981 612.674 45.6981C611.493 45.6981 610.51 45.9622 609.718 46.4904C608.926 47.0186 608.345 47.8204 607.98 48.896C607.615 49.9716 607.433 51.1816 607.433 52.5213V97.9985H590.798V52.094C590.798 50.8359 590.625 49.7075 590.28 48.7088C589.934 47.7148 589.406 46.9609 588.696 46.4519C587.986 45.943 587.122 45.6885 586.104 45.6885C584.924 45.6885 583.949 45.9622 583.181 46.5096C582.409 47.057 581.809 47.8492 581.382 48.8864C580.954 49.9236 580.743 51.1528 580.743 52.5742V97.9889H564.108L564.113 97.9937Z" fill="black"/>
<path d="M640.232 119.573V32.2196H656.867V40.2049H657.294C657.904 38.3754 658.806 36.7813 660.006 35.4176C661.206 34.0587 662.636 33.0215 664.302 32.3109C665.967 31.6002 667.834 31.2449 669.907 31.2449C673.075 31.2449 675.796 32.0276 678.071 33.5929C680.346 35.1583 682.103 37.3719 683.341 40.2385C684.579 43.1051 685.199 46.4664 685.199 50.3269V79.9536C685.199 83.8526 684.579 87.2282 683.341 90.0709C682.103 92.9183 680.337 95.1127 678.043 96.654C675.748 98.2002 673.037 98.9685 669.907 98.9685C667.834 98.9685 665.986 98.6131 664.364 97.9025C662.737 97.1918 661.326 96.1642 660.131 94.8246C658.931 93.4849 657.966 91.9003 657.237 90.0709H656.872V119.577H640.237L640.232 119.573ZM662.718 84.7073C663.817 84.7073 664.791 84.424 665.641 83.8526C666.495 83.286 667.162 82.5033 667.652 81.5046C668.141 80.5106 668.381 79.3198 668.381 77.9369V52.1516C668.381 50.8935 668.146 49.7747 667.681 48.8C667.215 47.8252 666.543 47.0522 665.67 46.4856C664.796 45.919 663.812 45.6309 662.713 45.6309C661.494 45.6309 660.448 45.8949 659.574 46.4231C658.701 46.9513 658.029 47.734 657.563 48.7712C657.098 49.8084 656.863 50.9752 656.863 52.2764V77.9993C656.863 79.3006 657.098 80.4674 657.563 81.5046C658.029 82.5417 658.691 83.334 659.545 83.8814C660.4 84.4288 661.456 84.7025 662.713 84.7025L662.718 84.7073Z" fill="black"/>
<path d="M712.824 98.6035C706.647 98.6035 702.068 97.2206 699.083 94.4596C696.098 91.6986 694.605 87.3867 694.605 81.5382V45.2083H689.119V32.2244H694.605V16.129H711.485V32.2244H719.101V45.2083H711.485V79.896C711.485 81.9271 711.912 83.3916 712.766 84.2848C713.62 85.1779 715.041 85.6244 717.033 85.6244C717.436 85.6244 717.834 85.6148 718.223 85.5956C718.607 85.5764 718.943 85.5668 719.226 85.5668V98.1233C718.333 98.2434 717.345 98.3586 716.27 98.4595C715.195 98.5603 714.048 98.6131 712.828 98.6131L712.824 98.6035Z" fill="black"/>
<path d="M731.672 120C730.491 120 729.387 119.957 728.35 119.88C727.314 119.798 726.411 119.678 725.639 119.515V106.776C726.003 106.896 726.411 106.959 726.858 106.959H728.322C730.395 106.959 732.017 106.57 733.198 105.801C734.374 105.028 735.209 103.789 735.698 102.085L736.063 99.8904L721.986 32.2244H739.231L747.092 96.9613L744.409 83.9775H747.332L744.774 96.9613L752.818 32.2244H770L756.35 98.8532C755.333 103.933 753.749 108.029 751.599 111.136C749.444 114.243 746.723 116.5 743.435 117.902C740.147 119.304 736.226 120.005 731.676 120.005L731.672 120Z" fill="black"/>
</g>
<defs>
<clipPath id="clip0_1907_5699">
<rect width="770" height="120" fill="white"/>
</clipPath>
</defs>
</svg>
