<svg width="54" height="20" viewBox="0 0 54 20" fill="none" xmlns="http://www.w3.org/2000/svg">
<path d="M5.06 14.25V17.17H4.03V14.25L1.5 15.72L1 14.84L3.53 13.38L1 11.92L1.5 11.04L4.03 12.51V9.59H5.06V12.51L7.58 11.04L8.09 11.92L5.56 13.38L8.09 14.84L7.58 15.72L5.06 14.25ZM9.09 6.66V9.58H8.09V6.66L5.57 8.13L5.07 7.25L7.59 5.79L5.07 4.33L5.57 3.45L8.1 4.91V2H9.1V4.91L11.63 3.45L12.14 4.33L9.61 5.79L12.14 7.25L11.63 8.13L9.1 6.66H9.09ZM13.14 14.25V17.17H12.14V14.25L9.61 15.72L9.1 14.84L11.63 13.38L9.1 11.92L9.61 11.04L12.14 12.51V9.59H13.14V12.51L15.67 11.04L16.17 11.92L13.64 13.38L16.17 14.84L15.67 15.72L13.14 14.25Z" fill="black"/>
<path d="M23.27 14.25V17.17H22.24V14.25L19.71 15.72L19.21 14.84L21.74 13.38L19.21 11.92L19.71 11.04L22.24 12.51V9.59H23.27V12.51L25.79 11.04L26.3 11.92L23.77 13.38L26.3 14.84L25.79 15.72L23.27 14.25ZM27.3 6.66V9.58H26.3V6.66L23.78 8.13L23.28 7.25L25.8 5.79L23.28 4.33L23.78 3.45L26.31 4.91V2H27.31V4.91L29.84 3.45L30.35 4.33L27.82 5.79L30.35 7.25L29.84 8.13L27.31 6.66H27.3ZM31.35 14.25V17.17H30.35V14.25L27.82 15.72L27.31 14.84L29.84 13.38L27.31 11.92L27.82 11.04L30.35 12.51V9.59H31.35V12.51L33.88 11.04L34.38 11.92L31.85 13.38L34.38 14.84L33.88 15.72L31.35 14.25Z" fill="black"/>
<path d="M41.48 14.25V17.17H40.45V14.25L37.92 15.72L37.42 14.84L39.95 13.38L37.42 11.92L37.92 11.04L40.45 12.51V9.59H41.48V12.51L44 11.04L44.51 11.92L41.98 13.38L44.51 14.84L44 15.72L41.48 14.25ZM45.51 6.66V9.58H44.51V6.66L41.99 8.13L41.49 7.25L44.01 5.79L41.49 4.33L41.99 3.45L44.52 4.91V2H45.52V4.91L48.05 3.45L48.56 4.33L46.03 5.79L48.56 7.25L48.05 8.13L45.52 6.66H45.51ZM49.56 14.25V17.17H48.56V14.25L46.03 15.72L45.52 14.84L48.05 13.38L45.52 11.92L46.03 11.04L48.56 12.51V9.59H49.56V12.51L52.09 11.04L52.59 11.92L50.06 13.38L52.59 14.84L52.09 15.72L49.56 14.25Z" fill="black"/>
</svg>
