<svg width="192" height="20" viewBox="0 0 192 20" fill="none" xmlns="http://www.w3.org/2000/svg">
<path d="M6.89 1.33997H8.71L1.82 19.61H0L6.89 1.33997Z" fill="black"/>
<path d="M10.82 13.32L13.05 9.90001L9.7 8.44001L10.08 7.33001L13.56 8.42001L13.75 4.51001H14.95L15.14 8.42001L18.62 7.33001L19 8.44001L15.65 9.90001L17.88 13.32L16.86 14.03L14.36 10.78L11.86 14.03L10.84 13.32H10.82Z" fill="black"/>
<path d="M34.01 11.13C34.01 7.69998 36.67 5.72998 39.79 5.72998C41.45 5.72998 42.71 6.37998 43.55 7.19998L42.54 8.51998C41.71 7.83998 40.87 7.44998 39.87 7.44998C37.66 7.44998 36.14 8.91998 36.14 11.13C36.14 13.34 37.64 14.78 39.81 14.78C41.03 14.78 42.04 14.24 42.85 13.57L43.75 14.92C42.59 15.94 41.13 16.5 39.64 16.5C36.43 16.5 34 14.54 34 11.14L34.01 11.13Z" fill="black"/>
<path d="M45.29 11.1C45.29 7.75999 47.81 5.73999 50.55 5.73999C53.56 5.73999 55.27 7.71999 55.27 10.58C55.27 11.02 55.22 11.45 55.17 11.72H46.73V10.19H53.87L53.42 10.7C53.42 8.47999 52.34 7.35999 50.61 7.35999C48.88 7.35999 47.34 8.68999 47.34 11.11C47.34 13.53 48.92 14.87 51.13 14.87C52.28 14.87 53.2 14.52 54.13 13.97L54.86 15.29C53.81 15.99 52.44 16.51 50.87 16.51C47.76 16.51 45.3 14.53 45.3 11.11L45.29 11.1Z" fill="black"/>
<path d="M59.25 12.65V3.02999H55.72V1.35999H61.34V12.78C61.34 14.2 62.15 14.78 63.27 14.78C63.83 14.78 64.43 14.64 65.11 14.35L65.61 15.9C64.63 16.29 63.94 16.5 62.78 16.5C60.48 16.5 59.24 15.13 59.24 12.66L59.25 12.65Z" fill="black"/>
<path d="M67.02 11.1C67.02 7.75999 69.54 5.73999 72.28 5.73999C75.29 5.73999 77 7.71999 77 10.58C77 11.02 76.95 11.45 76.9 11.72H68.46V10.19H75.6L75.15 10.7C75.15 8.47999 74.08 7.35999 72.34 7.35999C70.6 7.35999 69.07 8.68999 69.07 11.11C69.07 13.53 70.65 14.87 72.86 14.87C74.01 14.87 74.93 14.52 75.86 13.97L76.59 15.29C75.54 15.99 74.17 16.51 72.6 16.51C69.49 16.51 67.03 14.53 67.03 11.11L67.02 11.1Z" fill="black"/>
<path d="M81.48 15.11H81.41L81.22 16.24H79.57V1.35999H81.66V5.30999L81.57 7.19999H81.64C82.52 6.30999 83.76 5.73998 84.91 5.73998C87.62 5.73998 89.14 7.78999 89.14 10.95C89.14 14.46 86.96 16.5 84.57 16.5C83.57 16.5 82.41 15.99 81.49 15.11H81.48ZM87 10.97C87 8.81999 86.22 7.47999 84.37 7.47999C83.53 7.47999 82.59 7.89999 81.66 8.84999V13.7C82.51 14.47 83.48 14.75 84.16 14.75C85.76 14.75 86.99 13.4 86.99 10.97H87Z" fill="black"/>
<path d="M92.19 5.98999H93.92L94.11 8.36999H94.16C95.22 6.69999 96.8 5.73999 98.63 5.73999C99.42 5.73999 100.02 5.85999 100.64 6.15999L100.18 7.93999C99.48 7.71999 99.09 7.60999 98.3 7.60999C96.83 7.60999 95.41 8.35999 94.28 10.43V16.25H92.19V5.98999Z" fill="black"/>
<path d="M102.46 13.54C102.46 11.24 104.55 10.11 109.73 9.71999C109.65 8.44999 108.98 7.42999 107.15 7.42999C105.91 7.42999 104.69 7.99999 103.68 8.58999L102.88 7.18999C104.03 6.47999 105.74 5.73999 107.52 5.73999C110.35 5.73999 111.82 7.35999 111.82 10.07V16.25H110.09L109.92 14.92H109.85C108.75 15.78 107.33 16.5 105.92 16.5C103.96 16.5 102.45 15.35 102.45 13.54H102.46ZM109.72 13.46V11.06C105.69 11.35 104.5 12.16 104.5 13.39C104.5 14.42 105.42 14.85 106.52 14.85C107.62 14.85 108.66 14.34 109.72 13.47V13.46Z" fill="black"/>
<path d="M116.63 12.19V7.65999H113.8V6.09999L116.71 5.98999L116.98 2.73999H118.71V5.98999H123.55V7.65999H118.71V12.2C118.71 13.96 119.33 14.82 121.19 14.82C122.09 14.82 122.82 14.64 123.53 14.38L123.95 15.91C123.03 16.23 122.01 16.51 120.7 16.51C117.63 16.51 116.61 14.77 116.61 12.2L116.63 12.19Z" fill="black"/>
<path d="M130.52 7.66H125.93V5.99H132.61V16.25H130.52V7.66ZM129.84 2.49C129.84 1.61 130.5 1 131.4 1C132.3 1 132.96 1.61 132.96 2.49C132.96 3.37 132.3 3.97 131.4 3.97C130.5 3.97 129.84 3.39 129.84 2.49Z" fill="black"/>
<path d="M136.14 11.13C136.14 7.69998 138.55 5.72998 141.25 5.72998C143.95 5.72998 146.36 7.68998 146.36 11.13C146.36 14.57 143.95 16.49 141.25 16.49C138.55 16.49 136.14 14.53 136.14 11.13ZM144.22 11.13C144.22 8.91998 143.07 7.44998 141.25 7.44998C139.43 7.44998 138.28 8.91998 138.28 11.13C138.28 13.34 139.43 14.78 141.25 14.78C143.07 14.78 144.22 13.33 144.22 11.13Z" fill="black"/>
<path d="M148.87 5.98998H150.58L150.75 7.61998H150.83C151.86 6.56998 153.03 5.72998 154.61 5.72998C157.01 5.72998 158.1 7.19998 158.1 9.87998V16.24H156.01V10.15C156.01 8.35998 155.41 7.52998 153.89 7.52998C152.77 7.52998 152.02 8.07998 150.96 9.15998V16.23H148.87V5.98998Z" fill="black"/>
<path d="M174.17 13.32L176.4 9.90001L173.05 8.44001L173.43 7.33001L176.91 8.42001L177.1 4.51001H178.3L178.49 8.42001L181.97 7.33001L182.35 8.44001L179 9.90001L181.23 13.32L180.21 14.03L177.71 10.78L175.21 14.03L174.19 13.32H174.17Z" fill="black"/>
<path d="M189.77 1.33997H191.59L184.7 19.61H182.88L189.77 1.33997Z" fill="black"/>
</svg>
