<svg width="120" height="20" viewBox="0 0 120 20" fill="none" xmlns="http://www.w3.org/2000/svg">
<path d="M1.99988 19V3.12976H6.46553V5.43988H4.95408V16.6899H6.52564V19H1.99988Z" fill="black"/>
<path d="M9.9779 16.5954C9.72885 16.3979 9.57427 16.1489 9.51416 15.8397C9.45404 15.5305 9.48839 15.1956 9.61721 14.8263L10.9226 10.979L7.60767 8.60878C7.28133 8.37691 7.04946 8.11928 6.91206 7.83589C6.77465 7.55249 6.75748 7.2605 6.86912 6.94275C6.97217 6.63359 7.1611 6.41031 7.43591 6.2729C7.71072 6.12691 8.04565 6.05821 8.4321 6.05821H12.4941L13.7308 2.21088C13.851 1.83302 14.0227 1.53244 14.246 1.31774C14.4693 1.10305 14.7441 1 15.0619 1C15.3796 1 15.6544 1.10305 15.8777 1.31774C16.101 1.53244 16.2727 1.83302 16.4016 2.21088L17.6382 6.05821H21.6916C22.0867 6.05821 22.4302 6.12691 22.6964 6.2729C22.9712 6.41889 23.1602 6.64218 23.2632 6.95134C23.3663 7.26051 23.3577 7.55249 23.2203 7.83589C23.0829 8.11928 22.851 8.37691 22.5247 8.60878L19.2098 10.979L20.5151 14.8263C20.6439 15.1956 20.6783 15.5391 20.6268 15.8397C20.5752 16.1489 20.4121 16.3979 20.1544 16.5954C19.8968 16.7929 19.6134 16.8702 19.3042 16.8273C18.9951 16.7844 18.6687 16.6384 18.3424 16.3979L15.0705 13.9847L11.7813 16.3979C11.455 16.6384 11.1372 16.7844 10.8281 16.8273C10.5189 16.8702 10.2355 16.7929 9.96931 16.5954H9.9779Z" fill="black"/>
<path d="M31.1812 16.1059C30.3911 16.1059 29.6955 15.9342 29.0943 15.5993C28.5018 15.2558 28.0381 14.792 27.7031 14.208C27.3768 13.6155 27.2136 12.9199 27.2136 12.1298V6.98571C27.2136 6.19563 27.3768 5.50861 27.7117 4.90747C28.0466 4.31491 28.5104 3.84258 29.1029 3.50765C29.6955 3.17273 30.3911 3.00098 31.1812 3.00098C31.9713 3.00098 32.6325 3.15556 33.2165 3.47331C33.8005 3.79106 34.247 4.22904 34.5648 4.80442C34.8825 5.3798 35.0457 6.084 35.0543 6.90842V8.51434H31.997V6.61644C31.997 6.4361 31.9713 6.28152 31.9111 6.16129C31.851 6.04106 31.7652 5.938 31.6535 5.86071C31.5419 5.78342 31.4045 5.74907 31.2413 5.74907C31.0781 5.74907 30.9407 5.79201 30.8205 5.8693C30.7089 5.94659 30.6144 6.04964 30.5543 6.17846C30.4942 6.30727 30.4598 6.46186 30.4598 6.6422V12.4905C30.4598 12.6622 30.4942 12.8168 30.5543 12.9542C30.623 13.0916 30.7089 13.1947 30.8291 13.272C30.9493 13.3407 31.0867 13.3836 31.2499 13.3836C31.4045 13.3836 31.5333 13.3493 31.6449 13.272C31.7566 13.1947 31.8424 13.1002 31.894 12.9714C31.9541 12.8426 31.9798 12.6966 31.9884 12.5248V10.6098H35.0714V12.2243C35.0543 13.0315 34.8911 13.7271 34.5648 14.3025C34.2384 14.8779 33.7833 15.3245 33.2079 15.6422C32.6325 15.96 31.9541 16.1145 31.1812 16.1145V16.1059Z" fill="black"/>
<path d="M39.6745 16.106C38.8672 16.106 38.163 15.9428 37.5447 15.6079C36.935 15.273 36.4541 14.8092 36.1106 14.2167C35.767 13.6241 35.6039 12.9199 35.6039 12.1127V7.00293C35.6039 6.18709 35.7756 5.48289 36.1191 4.88174C36.4627 4.28919 36.9436 3.82545 37.5533 3.49053C38.163 3.1556 38.8672 2.99243 39.6745 2.99243C40.4817 2.99243 41.1945 3.15559 41.8043 3.48193C42.414 3.80826 42.8863 4.27201 43.2298 4.87316C43.5733 5.4743 43.7365 6.17849 43.7365 6.99433V12.1041C43.7365 12.9113 43.5648 13.6155 43.2298 14.2167C42.8863 14.8178 42.414 15.2816 41.8043 15.6079C41.1945 15.9342 40.4903 16.0974 39.6745 16.0974V16.106ZM39.6745 13.3751C39.8462 13.3751 39.9922 13.3321 40.1125 13.2548C40.2327 13.1775 40.3272 13.0659 40.3959 12.9285C40.4646 12.7911 40.4989 12.6365 40.4989 12.4562V6.63365C40.4989 6.4533 40.4646 6.29873 40.4045 6.16133C40.3358 6.02392 40.2413 5.91228 40.1211 5.83499C40.0008 5.7577 39.8462 5.72334 39.6745 5.72334C39.5027 5.72334 39.3567 5.7577 39.2279 5.83499C39.0991 5.91228 39.0046 6.01534 38.9445 6.16133C38.8844 6.29873 38.8501 6.4619 38.8501 6.64224V12.4648C38.8501 12.6451 38.8844 12.7997 38.9445 12.9285C39.0046 13.0659 39.0991 13.169 39.2279 13.2548C39.3567 13.3407 39.5027 13.3751 39.6659 13.3751H39.6745Z" fill="black"/>
<path d="M44.3806 15.9084V3.19849H47.7041L50.2031 11.8722L49.1554 10.7729H49.8596L49.8339 3.19849H52.5218V15.9084H49.2585L46.7337 7.26052L47.7728 8.35116H47.0514L47.0858 15.9084H44.3892H44.3806Z" fill="black"/>
<path d="M57.1678 16.0888C56.5753 16.0888 56.0343 16.0029 55.5447 15.8226C55.0552 15.6422 54.6344 15.376 54.2823 15.0239C53.9302 14.6718 53.6554 14.251 53.4665 13.7529C53.2776 13.2548 53.1831 12.7138 53.1831 12.104V6.98571C53.1831 6.17846 53.3463 5.48285 53.6726 4.8817C53.9989 4.28915 54.4627 3.82541 55.0638 3.49049C55.6564 3.16415 56.352 3.00098 57.1507 3.00098C57.9493 3.00098 58.602 3.15556 59.186 3.45613C59.7699 3.7567 60.2251 4.20327 60.5514 4.78724C60.8778 5.37121 61.0495 6.084 61.0581 6.9256V7.74144H57.9751L57.9579 6.62502C57.9579 6.32445 57.8806 6.10118 57.7432 5.9466C57.6058 5.79202 57.4255 5.71472 57.2022 5.71472C57.0304 5.71472 56.893 5.74906 56.7728 5.82635C56.6612 5.90364 56.5667 6.00671 56.5066 6.14411C56.4465 6.28152 56.4121 6.4361 56.4121 6.61644V12.4304C56.4121 12.5678 56.4293 12.6966 56.4722 12.8082C56.5066 12.9199 56.5667 13.0143 56.6268 13.1002C56.6955 13.1861 56.7814 13.2462 56.8844 13.2806C56.9875 13.3235 57.0991 13.3407 57.2365 13.3407C57.3997 13.3407 57.5371 13.3063 57.6488 13.2376C57.7604 13.1689 57.8463 13.0659 57.9064 12.9371C57.9665 12.8082 58.0009 12.6451 58.0009 12.4475V11.0306H57.1764V8.74621H61.0753V12.0954C61.0753 12.7052 60.9808 13.2634 60.7919 13.7529C60.603 14.251 60.3367 14.6718 59.9932 15.0153C59.6497 15.3588 59.2461 15.625 58.7738 15.8054C58.3014 15.9857 57.769 16.0716 57.1678 16.063V16.0888Z" fill="black"/>
<path d="M61.7108 15.9084V3.19849H66.2537C66.9321 3.19849 67.5075 3.31872 67.9713 3.56777C68.4436 3.81681 68.8043 4.16891 69.0447 4.62406C69.2852 5.07922 69.4054 5.63743 69.4054 6.30728V8.41128C69.4054 8.9609 69.3024 9.44182 69.0791 9.83686C68.8644 10.2319 68.5896 10.541 68.2547 10.7643L69.5858 15.9084H66.3138L65.3176 11.3741H64.8882V15.9084H61.7108ZM64.8882 9.12407H65.3692C65.6182 9.12407 65.8157 9.06395 65.9617 8.93514C66.0991 8.80632 66.1764 8.62597 66.1764 8.3941V6.40174C66.1764 6.16128 66.1077 5.98094 65.9617 5.85212C65.8157 5.72331 65.6268 5.67177 65.3692 5.67177H64.8882V9.12407Z" fill="black"/>
<path d="M69.9207 15.9084L72.0934 3.19849H75.0906V6.27292H74.1803L73.1497 15.9084H69.9207ZM71.7843 13.8731L72.1535 11.4857H76.2843L76.6535 13.8731H71.7843ZM75.3053 15.9084L74.249 6.27292V3.19849H76.3444L78.5085 15.9084H75.3053Z" fill="black"/>
<path d="M79.9942 15.9084V5.85212H77.9761V3.19849H85.207V5.85212H83.1717V15.9084H79.9942Z" fill="black"/>
<path d="M89.3377 16.0973C88.5047 16.0973 87.8091 15.9513 87.2509 15.6679C86.6927 15.3845 86.2719 14.9723 85.9799 14.4485C85.6879 13.9246 85.5419 13.2977 85.5333 12.5763V11.9065H88.5133V12.7051C88.5133 12.8855 88.5562 13.0315 88.6163 13.1517C88.6765 13.2719 88.7623 13.3664 88.874 13.4265C88.9856 13.4866 89.123 13.521 89.2776 13.521C89.4236 13.521 89.5524 13.4952 89.6555 13.4351C89.7585 13.3836 89.8444 13.2977 89.8959 13.2032C89.9475 13.1002 89.9732 12.9885 89.9732 12.8511V12.5677C89.9732 12.2242 89.8788 11.9322 89.6984 11.6918C89.5181 11.4599 89.1746 11.1937 88.685 10.9017L87.8692 10.395C87.1307 9.97422 86.5724 9.4933 86.1774 8.92651C85.7824 8.3683 85.5849 7.64693 85.5849 6.77956V6.57346C85.5849 5.86068 85.748 5.24235 86.0572 4.7185C86.3663 4.19464 86.8043 3.77383 87.3711 3.46467C87.9379 3.15551 88.5906 3.00952 89.3549 3.00952C90.1793 3.00952 90.8578 3.16411 91.3902 3.47327C91.9312 3.78243 92.3349 4.20323 92.6011 4.73568C92.8673 5.26812 93.0047 5.87785 93.0047 6.58205V7.22613H90.0677V6.42747C90.0677 6.25572 90.0333 6.10971 89.9818 5.98949C89.9303 5.86926 89.8616 5.7748 89.7585 5.71468C89.6641 5.64598 89.5438 5.62022 89.3892 5.62022C89.2518 5.62022 89.1316 5.64597 89.0286 5.70609C88.9341 5.7662 88.8568 5.85209 88.8053 5.95514C88.7538 6.05819 88.728 6.17842 88.728 6.31583V6.58205C88.728 6.92556 88.8139 7.20036 88.977 7.42365C89.1402 7.64693 89.4322 7.8788 89.8444 8.12785L90.6602 8.60018C91.2442 8.94369 91.7251 9.30437 92.0858 9.66506C92.4465 10.0257 92.7127 10.4208 92.8845 10.8416C93.0476 11.271 93.1335 11.7519 93.1335 12.3101V12.542C93.1335 13.2548 92.9789 13.8817 92.6698 14.4141C92.3606 14.9465 91.9141 15.3674 91.3473 15.6679C90.7805 15.9685 90.102 16.1231 89.3291 16.1231L89.3377 16.0973Z" fill="black"/>
<path d="M99.9866 16.5954C99.7375 16.3979 99.5829 16.1489 99.5228 15.8397C99.4627 15.5305 99.4971 15.1956 99.6259 14.8263L100.931 10.979L97.6163 8.60878C97.29 8.37691 97.0581 8.11928 96.9207 7.83589C96.7833 7.55249 96.7661 7.2605 96.8778 6.94275C96.9808 6.63359 97.1698 6.41031 97.4446 6.2729C97.7194 6.12691 98.0543 6.05821 98.4408 6.05821H102.503L103.739 2.21088C103.86 1.83302 104.031 1.53244 104.255 1.31774C104.478 1.10305 104.753 1 105.071 1C105.388 1 105.663 1.10305 105.886 1.31774C106.11 1.53244 106.281 1.83302 106.41 2.21088L107.647 6.05821H111.7C112.095 6.05821 112.439 6.12691 112.705 6.2729C112.98 6.41889 113.169 6.64218 113.272 6.95134C113.375 7.26051 113.366 7.55249 113.229 7.83589C113.092 8.11928 112.86 8.37691 112.533 8.60878L109.218 10.979L110.524 14.8263C110.653 15.1956 110.687 15.5391 110.635 15.8397C110.584 16.1489 110.421 16.3979 110.163 16.5954C109.905 16.7929 109.622 16.8702 109.313 16.8273C109.004 16.7844 108.677 16.6384 108.351 16.3979L105.079 13.9847L101.79 16.3979C101.464 16.6384 101.146 16.7844 100.837 16.8273C100.528 16.8702 100.244 16.7929 99.978 16.5954H99.9866Z" fill="black"/>
<path d="M118.15 19H113.633V16.6899H115.204V5.43988H113.684V3.12976H118.158V19H118.15Z" fill="black"/>
</svg>
